<svg xmlns="http://www.w3.org/2000/svg" width="20" height="20" fill="none"><path fill="#999" d="M7.628 4.507C8.683 2.613 9.21 1.667 10 1.667c.789 0 1.317.946 2.372 2.84l.273.49c.3.538.45.807.684.985.234.177.525.243 1.108.375l.53.12c2.05.463 3.075.695 3.318 1.48.244.784-.454 1.6-1.852 3.235l-.361.422c-.397.465-.596.697-.685.984-.09.287-.06.597 0 1.217l.055.564c.211 2.18.317 3.27-.321 3.755-.639.484-1.598.042-3.517-.841l-.497-.229c-.545-.251-.818-.377-1.107-.377-.29 0-.562.126-1.107.377l-.497.229c-1.919.883-2.878 1.325-3.517.84-.638-.484-.532-1.574-.321-3.754l.054-.564c.06-.62.09-.93.001-1.217-.09-.287-.288-.52-.685-.984l-.361-.422C2.169 9.558 1.47 8.74 1.714 7.956c.244-.784 1.27-1.016 3.319-1.48l.53-.12c.583-.131.874-.197 1.108-.374.234-.178.384-.447.684-.985l.273-.49z"/></svg>