<svg xmlns="http://www.w3.org/2000/svg" width="20" height="20" fill="none"><path fill="#CCC" d="M8.4 6.58c.897-1.609 1.346-2.413 2.016-2.413.671 0 1.12.804 2.017 2.414l.232.416c.255.458.382.686.581.837.199.151.447.207.942.32l.45.101c1.743.394 2.614.592 2.821 1.258.207.667-.387 1.36-1.574 2.75l-.308.36c-.337.394-.506.591-.582.835-.076.245-.05.508 0 1.034l.047.48c.18 1.853.27 2.78-.273 3.191-.543.412-1.358.037-2.99-.714l-.422-.195c-.463-.213-.695-.32-.94-.32-.246 0-.478.107-.942.32l-.422.195c-1.631.75-2.447 1.126-2.99.714-.542-.411-.452-1.338-.272-3.191l.046-.48c.051-.526.077-.79 0-1.034-.075-.244-.244-.441-.582-.836l-.307-.36C3.76 10.875 3.166 10.18 3.374 9.514c.207-.666 1.078-.864 2.82-1.258l.451-.102c.495-.112.743-.168.942-.319.198-.15.326-.38.58-.837l.233-.416zM4.056 2.084c.025-.088.182-.089.207-.001.117.402.334.996.662 1.321.327.325.922.538 1.325.652.088.025.089.182 0 .207-.401.117-.995.334-1.32.661-.326.328-.538.923-.652 1.326-.025.088-.182.088-.207 0-.117-.401-.334-.995-.662-1.32-.327-.326-.922-.539-1.325-.653-.088-.025-.089-.181 0-.207.401-.117.995-.333 1.32-.66.326-.328.538-.924.652-1.326z"/><path fill="#CCC" fill-rule="evenodd" d="M15.833 2.708c.345 0 .625.28.625.625v.209h.209a.625.625 0 0 1 0 1.25h-.209V5a.625.625 0 1 1-1.25 0v-.208H15a.625.625 0 1 1 0-1.25h.208v-.209c0-.345.28-.625.625-.625z" clip-rule="evenodd"/></svg>