<svg xmlns="http://www.w3.org/2000/svg" width="20" height="20" fill="none"><path fill="#999" fill-rule="evenodd" d="M10 1.042c.345 0 .625.28.625.625v1.666a.625.625 0 1 1-1.25 0V1.667c0-.345.28-.625.625-.625zM4.558 4.558a.625.625 0 0 1 .884 0l.286.286a.625.625 0 1 1-.884.884l-.286-.286a.625.625 0 0 1 0-.884zm10.884 0a.625.625 0 0 1 0 .884l-.286.286a.625.625 0 0 1-.884-.884l.286-.286a.625.625 0 0 1 .884 0zM1.042 10c0-.345.28-.625.625-.625h1.667a.625.625 0 1 1 0 1.25H1.667A.625.625 0 0 1 1.042 10zm15 0c0-.345.28-.625.625-.625h1.667a.625.625 0 0 1 0 1.25h-1.667a.625.625 0 0 1-.625-.625zM5.728 14.272a.625.625 0 0 1 0 .884l-.286.286a.625.625 0 0 1-.884-.884l.286-.286a.625.625 0 0 1 .884 0zm8.545 0a.625.625 0 0 1 .883 0l.286.286a.625.625 0 0 1-.884.884l-.285-.286a.625.625 0 0 1 0-.884zM10 16.042c.345 0 .625.28.625.625v1.666a.625.625 0 0 1-1.25 0v-1.666c0-.346.28-.625.625-.625z" clip-rule="evenodd"/><path fill="#999" d="M5.833 9.216c0 2.119 1.675 3.248 2.9 4.258.433.357.85.693 1.267.693.416 0 .833-.336 1.266-.693 1.226-1.01 2.9-2.14 2.9-4.258S11.875 5.596 10 7.632c-1.875-2.037-4.167-.534-4.167 1.584z"/></svg>