<svg xmlns="http://www.w3.org/2000/svg" width="30" height="30" fill="none"><path fill="#CCC" d="M10.781 14.063H7.5V11.25h3.281a1.406 1.406 0 0 1 0 2.813zm.469 1.874H7.5v3.75h3.75a1.875 1.875 0 1 0 0-3.75zm9.375-1.874a2.812 2.812 0 0 0-2.65 1.874h5.3a2.812 2.812 0 0 0-2.65-1.874zm7.5-7.5v16.875a1.875 1.875 0 0 1-1.875 1.875H3.75a1.875 1.875 0 0 1-1.875-1.875V6.563A1.875 1.875 0 0 1 3.75 4.688h22.5a1.875 1.875 0 0 1 1.875 1.875zm-11.25 3.75a.938.938 0 0 0 .938.937h5.625a.938.938 0 0 0 0-1.875h-5.625a.937.937 0 0 0-.938.938zM15 17.813a3.75 3.75 0 0 0-1.656-3.11 3.28 3.28 0 0 0-2.563-5.328H6.562a.937.937 0 0 0-.937.938v10.312a.937.937 0 0 0 .938.938h4.687a3.75 3.75 0 0 0 3.75-3.75zm10.313-.938a4.688 4.688 0 1 0-1.587 3.516.938.938 0 1 0-1.241-1.407 2.813 2.813 0 0 1-4.51-1.172h6.4a.938.938 0 0 0 .938-.937z"/></svg>