<svg xmlns="http://www.w3.org/2000/svg" width="20" height="20" fill="none"><path fill="#999" fill-rule="evenodd" d="M3.476 2.643C2.5 3.619 2.5 5.191 2.5 8.333v3.334c0 3.142 0 4.714.976 5.69.977.976 2.548.976 5.69.976h1.667c3.143 0 4.714 0 5.69-.976.977-.976.977-2.548.977-5.69V8.333c0-3.142 0-4.714-.976-5.69-.977-.976-2.548-.976-5.69-.976H9.166c-3.143 0-4.714 0-5.69.976zm2.566 4.024c0-.345.28-.625.625-.625h6.666a.625.625 0 1 1 0 1.25H6.667a.625.625 0 0 1-.625-.625zm0 3.333c0-.345.28-.625.625-.625h6.666a.625.625 0 1 1 0 1.25H6.667A.625.625 0 0 1 6.042 10zm.625 2.708a.625.625 0 1 0 0 1.25h4.166a.625.625 0 0 0 0-1.25H6.667z" clip-rule="evenodd"/></svg>