<svg xmlns="http://www.w3.org/2000/svg" width="20" height="20" fill="none"><path fill="#A291FD" fill-rule="evenodd" d="M5.226 1.76c-.675.089-1.033.251-1.287.5-.255.25-.42.6-.511 1.26-.094.681-.095 1.583-.095 2.876v7.14c.324-.22.689-.39 1.082-.493.44-.115.954-.115 1.706-.115h10.545V6.396c0-1.293-.001-2.195-.095-2.875-.09-.661-.256-1.011-.51-1.26-.255-.25-.612-.412-1.287-.501-.695-.092-1.615-.093-2.935-.093H8.16c-1.32 0-2.24.001-2.935.093zm.406 3.736c0-.374.309-.676.69-.676h7.356c.38 0 .69.302.69.676a.683.683 0 0 1-.69.675H6.322a.683.683 0 0 1-.69-.675zm.69 2.477a.683.683 0 0 0-.69.676c0 .373.309.675.69.675h4.597c.381 0 .69-.302.69-.675a.683.683 0 0 0-.69-.676H6.322z" clip-rule="evenodd"/><path fill="#A291FD" d="M7.241 14.28H6.228c-.9 0-1.215.005-1.456.068a2.053 2.053 0 0 0-1.414 1.282c.014.319.035.599.07.85.09.66.256 1.01.511 1.26.254.249.612.412 1.287.5.694.092 1.615.093 2.935.093h3.678c1.32 0 2.24-.001 2.935-.092.675-.09 1.032-.252 1.286-.501.255-.25.42-.6.512-1.26.076-.556.09-1.258.094-2.2h-5.747v2.505c0 .248 0 .372-.087.422-.087.05-.207-.005-.445-.116l-1.142-.532c-.081-.037-.121-.056-.165-.056-.043 0-.084.019-.164.056l-1.143.532c-.238.111-.357.167-.445.116-.087-.05-.087-.174-.087-.422v-2.506z"/></svg>