<svg xmlns="http://www.w3.org/2000/svg" width="21" height="20" fill="none"><path fill="#A291FD" fill-rule="evenodd" d="M11.697 4.82a2.5 2.5 0 0 0-2.394 0L5.308 6.997a2.5 2.5 0 0 0-1.303 2.195v4.114a2.5 2.5 0 0 0 1.303 2.195l3.995 2.179a2.5 2.5 0 0 0 2.394 0l3.995-2.179a2.5 2.5 0 0 0 1.303-2.195V9.193a2.5 2.5 0 0 0-1.303-2.195l-3.995-2.179zM10.5 8.75c-.236 0-.395.284-.711.852l-.082.147c-.09.161-.135.242-.206.295-.07.054-.157.073-.332.113l-.159.036c-.615.14-.922.209-.995.444-.074.235.136.48.555.97l.109.127c.119.14.178.21.205.295.027.087.018.18 0 .365l-.016.17c-.064.654-.095.98.096 1.126.192.145.48.013 1.055-.252l.15-.069c.163-.075.245-.113.331-.113.087 0 .169.038.332.113l.15.069c.575.265.863.397 1.055.252.191-.145.16-.472.096-1.126l-.016-.17c-.019-.185-.028-.278 0-.365.026-.086.086-.155.205-.295l.108-.127c.42-.49.629-.735.556-.97-.073-.235-.38-.305-.996-.444l-.159-.036c-.175-.04-.262-.06-.332-.113-.07-.053-.115-.134-.205-.295l-.082-.147c-.317-.568-.475-.852-.712-.852z" clip-rule="evenodd"/><path fill="#A291FD" d="M9.666 1.667h1.667c1.571 0 2.357 0 2.845.488s.488 1.274.488 2.845v.015l-2.371-1.293a3.75 3.75 0 0 0-3.59 0L6.332 5.015V5c0-1.571 0-2.357.488-2.845s1.274-.488 2.845-.488z"/></svg>