<svg xmlns="http://www.w3.org/2000/svg" width="224" height="128" fill="none"><g clip-path="url(#a)"><path fill="url(#b)" fill-opacity=".5" d="M32.5 98.5C23.7 94.1 7.167 116 0 127.5h223.5V0c-3 7-11 7-18 2S193 6 195 16.5s-6.5 7-12.5 6 .5 26-7.5 26-13 4-16.5 15.5-7.5 22-19 23-18-35.5-26-25-29 11.5-36.5 8-11.5 6-19 21-14.5 13-25.5 7.5z"/><path stroke="#A291FD" d="M32.5 98.5C23.7 94.1 7.167 116 0 127.5h223.5V0c-3 7-11 7-18 2S193 6 195 16.5s-6.5 7-12.5 6 .5 26-7.5 26-13 4-16.5 15.5-7.5 22-19 23-18-35.5-26-25-29 11.5-36.5 8-11.5 6-19 21-14.5 13-25.5 7.5z"/><path stroke="url(#c)" d="M32.5 98.5C23.7 94.1 7.167 116 0 127.5h223.5V0c-3 7-11 7-18 2S193 6 195 16.5s-6.5 7-12.5 6 .5 26-7.5 26-13 4-16.5 15.5-7.5 22-19 23-18-35.5-26-25-29 11.5-36.5 8-11.5 6-19 21-14.5 13-25.5 7.5z"/></g><defs><radialGradient id="c" cx="0" cy="0" r="1" gradientTransform="matrix(0 12.5 -21.9118 0 5.5 118.5)" gradientUnits="userSpaceOnUse"><stop stop-color="#A291FD"/><stop offset=".41" stop-color="#A291FD" stop-opacity="0"/></radialGradient><linearGradient id="b" x1="111.75" x2="111.75" y1="-109" y2="127.5" gradientUnits="userSpaceOnUse"><stop stop-color="#A291FD"/><stop offset="1" stop-color="#A291FD" stop-opacity="0"/></linearGradient><clipPath id="a"><path fill="#fff" d="M0 0h223.5v127.5H0z"/></clipPath></defs></svg>