<svg xmlns="http://www.w3.org/2000/svg" width="21" height="20" fill="none"><path fill="#A291FD" d="M9.064 13.763c.004-.092.156-.128.2-.049.212.375.572.926.98 1.177.41.25 1.064.322 1.494.34.091.004.127.155.048.2-.375.212-.926.572-1.177.98-.25.409-.322 1.063-.34 1.493-.004.092-.155.128-.2.048-.211-.375-.572-.926-.98-1.176-.409-.25-1.063-.322-1.493-.34-.092-.004-.128-.156-.048-.2.375-.212.926-.572 1.176-.98.251-.41.322-1.064.34-1.493zm6.846-.833c-.007-.092-.167-.13-.214-.052-.144.235-.351.52-.581.66-.23.142-.578.197-.852.219-.092.007-.13.166-.052.214.236.144.52.35.66.58.142.231.198.578.219.853.007.091.167.13.215.052.143-.236.35-.52.58-.661.23-.141.578-.197.853-.218.09-.007.13-.167.051-.215-.235-.143-.52-.35-.66-.58-.142-.23-.198-.578-.219-.853zm-3.157-9.595-.202-.255c-.78-.986-1.17-1.48-1.625-1.406-.454.072-.67.663-1.105 1.843l-.112.306c-.124.335-.185.503-.304.626-.118.123-.28.188-.603.317l-.294.117-.206.083c-1 .401-1.504.628-1.568 1.07-.069.471.408.874 1.362 1.68l.246.208c.271.23.407.344.484.5.078.156.09.336.111.696l.02.328c.078 1.266.117 1.9.529 2.118.411.218.923-.123 1.947-.805l.264-.177c.291-.194.437-.29.603-.317.166-.027.335.02.672.113l.306.085c1.185.329 1.778.493 2.1.157.324-.336.163-.95-.158-2.178l-.083-.318c-.09-.349-.136-.523-.111-.696.025-.172.118-.323.304-.625l.17-.276c.654-1.063.981-1.595.77-2.021-.213-.426-.824-.464-2.046-.54l-.316-.02c-.347-.022-.52-.033-.671-.113-.151-.08-.262-.22-.484-.5zm-4.891 7.77C6.082 11.975 4.6 13.353 4.04 15c-.627-3.923.243-6.456 1.637-8.03.12.245.277.449.417.607.291.33.71.684 1.135 1.043l.306.259.141.12.013.198.025.404c.033.546.066 1.079.148 1.504z"/></svg>