<svg xmlns="http://www.w3.org/2000/svg" width="38" height="38" fill="none"><path fill="#A291FD" fill-rule="evenodd" d="M34.833 19c0 8.744-7.088 15.833-15.833 15.833-8.745 0-15.833-7.088-15.833-15.833 0-8.745 7.088-15.833 15.833-15.833 8.744 0 15.833 7.088 15.833 15.833zm-13.477-8.794c.634.17 1.01.82.84 1.454l-4.098 15.294a1.187 1.187 0 1 1-2.294-.614l4.098-15.294c.17-.634.82-1.01 1.454-.84zm2.346 3.204a1.188 1.188 0 0 1 1.68 0l.33.33c1.005 1.006 1.844 1.845 2.42 2.6.609.798 1.035 1.64 1.035 2.66 0 1.02-.426 1.862-1.035 2.66-.576.755-1.415 1.594-2.42 2.6l-.33.33a1.188 1.188 0 0 1-1.68-1.68l.272-.271c1.079-1.08 1.802-1.806 2.27-2.42.447-.586.549-.927.549-1.219 0-.292-.102-.633-.549-1.22-.468-.613-1.191-1.34-2.27-2.419l-.272-.271a1.187 1.187 0 0 1 0-1.68zm-11.083 0a1.187 1.187 0 0 1 1.68 1.68l-.272.271c-1.08 1.08-1.803 1.806-2.27 2.42-.448.586-.55.927-.55 1.219 0 .292.102.633.55 1.22.467.613 1.19 1.34 2.27 2.419l.271.271a1.187 1.187 0 1 1-1.679 1.68l-.33-.33c-1.006-1.006-1.845-1.845-2.421-2.6-.608-.798-1.035-1.64-1.035-2.66 0-1.02.427-1.862 1.035-2.66.576-.755 1.415-1.594 2.421-2.6l.33-.33z" clip-rule="evenodd"/></svg>