<svg xmlns="http://www.w3.org/2000/svg" width="20" height="20" fill="none"><path fill="#A291FD" d="M18.334 6.802v.06c0 .718 0 1.076-.173 1.37-.173.293-.486.467-1.113.816l-.661.367c.455-1.54.607-3.195.663-4.61l.008-.184.002-.044c.543.189.848.33 1.038.593.236.327.236.762.236 1.632zm-16.667 0v.06c0 .718 0 1.076.173 1.37.172.293.486.467 1.113.816l.661.367c-.455-1.54-.607-3.195-.663-4.61l-.008-.184-.002-.044c-.543.189-.848.33-1.038.593-.236.327-.236.762-.236 1.632z"/><path fill="#A291FD" fill-rule="evenodd" d="M10 1.667c1.487 0 2.711.13 3.648.289.949.16 1.423.24 1.82.728.396.488.375 1.016.333 2.071-.143 3.624-.925 8.15-5.176 8.55v2.945h1.192c.397 0 .74.28.817.67l.158.788H15a.625.625 0 1 1 0 1.25H5a.625.625 0 1 1 0-1.25h2.21l.157-.788c.078-.39.42-.67.818-.67h1.191v-2.945c-4.25-.4-5.032-4.926-5.175-8.55-.042-1.055-.063-1.583.333-2.071.397-.488.871-.568 1.82-.728a21.978 21.978 0 0 1 3.648-.29zm.794 3.499-.082-.147c-.317-.568-.475-.852-.712-.852-.236 0-.395.284-.711.852l-.082.147c-.09.161-.135.242-.205.295-.07.053-.158.073-.333.113l-.159.036c-.615.139-.922.208-.995.444-.073.235.136.48.555.97l.109.127c.119.14.178.209.205.295.027.086.018.18 0 .365l-.016.17c-.064.653-.095.98.096 1.126.192.145.48.013 1.055-.253l.15-.068c.163-.075.245-.113.331-.113.087 0 .169.038.332.113l.15.068c.575.266.863.398 1.055.253.191-.146.16-.473.096-1.127l-.016-.169c-.018-.186-.027-.279 0-.365.026-.086.086-.156.205-.295l.108-.127c.42-.49.63-.735.556-.97-.073-.236-.38-.305-.996-.444l-.159-.036c-.174-.04-.262-.06-.332-.113-.07-.053-.115-.134-.205-.295z" clip-rule="evenodd"/></svg>