<svg xmlns="http://www.w3.org/2000/svg" width="20" height="20" fill="none"><path fill="#CCC" d="M7.5 5a2.5 2.5 0 1 0 5 0 2.5 2.5 0 0 0-5 0zM2.083 15a2.5 2.5 0 1 0 5 0 2.5 2.5 0 0 0-5 0zm13.333 2.5a2.5 2.5 0 1 1 0-5 2.5 2.5 0 0 1 0 5zM6.004 6.302a.625.625 0 1 0-.828-.937 7.276 7.276 0 0 0-2.468 5.468.625.625 0 0 0 1.25 0c0-1.804.79-3.423 2.046-4.531zm8.819-.937a.625.625 0 1 0-.827.937 6.026 6.026 0 0 1 2.045 4.531.625.625 0 0 0 1.25 0 7.276 7.276 0 0 0-2.468-5.468zm-6.334 11.32a.625.625 0 0 0-.312 1.21 7.303 7.303 0 0 0 3.645 0 .625.625 0 0 0-.311-1.21 6.055 6.055 0 0 1-3.022 0z"/></svg>