<svg xmlns="http://www.w3.org/2000/svg" width="18" height="18" fill="none"><path fill="#A291FD" d="M9.624 16.351C11.97 15.881 15 14.195 15 9.833c0-3.968-2.905-6.611-4.994-7.825-.463-.27-1.006.085-1.006.62V4c0 1.081-.455 3.055-1.718 3.876-.645.42-1.342-.208-1.42-.973l-.064-.628c-.075-.731-.82-1.174-1.403-.729-1.049.8-2.145 2.201-2.145 4.287 0 5.334 3.967 6.667 5.95 6.667.115 0 .237-.003.363-.01C7.583 16.405 6 15.797 6 13.832c0-1.537 1.121-2.577 1.973-3.082.23-.136.498.04.498.307v.442c0 .338.13.867.442 1.229.352.409.87-.02.91-.558.014-.17.185-.279.332-.193.481.281 1.095.882 1.095 1.855 0 1.536-.847 2.243-1.626 2.518z"/></svg>