<svg xmlns="http://www.w3.org/2000/svg" width="20" height="20" fill="none"><path fill="#E6E6E6" d="M3.204 3.204a2.403 2.403 0 0 0 0 3.398l1.323 1.323a.631.631 0 0 1 .031-.034l3.333-3.333a.632.632 0 0 1 .034-.031L6.602 3.204a2.403 2.403 0 0 0-3.398 0zm5.603 2.204a.632.632 0 0 1-.032.034L5.442 8.775a.635.635 0 0 1-.034.031l7.99 7.99a2.403 2.403 0 0 0 3.398-3.398l-7.99-7.99zm4.61-3.485a.402.402 0 0 1 .75 0l.358.912c.04.105.123.187.227.228l.91.36c.34.135.34.618 0 .752l-.91.36a.403.403 0 0 0-.227.228l-.359.913a.402.402 0 0 1-.75 0l-.358-.913a.403.403 0 0 0-.227-.228l-.91-.36a.405.405 0 0 1 0-.752l.91-.36a.403.403 0 0 0 .227-.228l.359-.912zm3.223 5.685a.402.402 0 0 1 .749 0l.13.333a.407.407 0 0 0 .228.227l.331.132c.34.134.34.617 0 .752l-.331.131a.403.403 0 0 0-.227.228l-.131.333a.402.402 0 0 1-.75 0l-.13-.333a.404.404 0 0 0-.227-.228l-.332-.131a.405.405 0 0 1 0-.752l.332-.132a.404.404 0 0 0 .227-.227l.13-.333zM4.278 12.756a.402.402 0 0 1 .75 0l.13.333a.4.4 0 0 0 .227.227l.331.132c.34.134.34.617 0 .752l-.331.131a.404.404 0 0 0-.227.228l-.13.333a.402.402 0 0 1-.75 0l-.131-.333a.404.404 0 0 0-.227-.228l-.332-.13a.405.405 0 0 1 0-.753l.332-.132a.404.404 0 0 0 .227-.227l.13-.333z"/></svg>