<svg xmlns="http://www.w3.org/2000/svg" width="20" height="20" fill="none"><path fill="#A291FD" d="M10.694 10.865c1.693.79 3.442 1.182 4.92 1.105.009 0 .018 0 .026-.002l.106-10.502a.461.461 0 0 0-.718-.387L6.194 7.04c.717 1.364 2.369 2.83 4.501 3.826h-.001z"/><path fill="#A291FD" d="M15.245 12.977c-1.541 0-3.288-.423-4.973-1.208-2.323-1.083-4.07-2.629-4.91-4.17L.87 10.629a.46.46 0 0 0 .195.84l7.542 1.025c.444.061.85.28 1.146.617l5.012 5.73a.46.46 0 0 0 .807-.3l.057-5.575a8.25 8.25 0 0 1-.386.01h.001z"/><path fill="#A291FD" d="M15.246 12.181c-1.542 0-3.289-.423-4.973-1.207C6.31 9.124 4.02 5.933 5.058 3.708c1.037-2.225 4.954-2.52 8.916-.673 1.296.605 2.47 1.388 3.397 2.267a.5.5 0 0 1-.686.726c-.85-.806-1.932-1.527-3.133-2.087-3.339-1.558-6.815-1.47-7.588.19-.775 1.661 1.392 4.38 4.732 5.937 1.693.79 3.44 1.183 4.92 1.105 1.365-.07 2.312-.531 2.67-1.295.37-.797.012-1.706-.355-2.33a.499.499 0 1 1 .861-.506c.691 1.172.833 2.33.4 3.257-.52 1.114-1.771 1.779-3.523 1.871-.139.007-.279.01-.422.01h-.001z"/></svg>