<svg xmlns="http://www.w3.org/2000/svg" width="20" height="20" fill="none"><path fill="#A291FD" fill-rule="evenodd" d="M9.04 18.279A8.335 8.335 0 0 1 10 1.667 8.333 8.333 0 0 1 18.334 10c0 4.297-2.736 3.944-5.072 3.642-1.348-.174-2.563-.331-3.043.431-.33.522.026 1.172.462 1.608a1.394 1.394 0 0 1 0 1.972c-.436.436-1.03.696-1.642.626zm.198-12.446a1.25 1.25 0 1 1-2.5 0 1.25 1.25 0 0 1 2.5 0zm-3.821 5a1.25 1.25 0 1 0 0-2.5 1.25 1.25 0 0 0 0 2.5zm9.167 0a1.25 1.25 0 1 0 0-2.5 1.25 1.25 0 0 0 0 2.5zm-2.5-3.75a1.25 1.25 0 1 0 0-2.5 1.25 1.25 0 0 0 0 2.5z" clip-rule="evenodd"/></svg>