<svg xmlns="http://www.w3.org/2000/svg" width="30" height="30" fill="none"><path fill="#CCC" d="M10.93 4.32a.469.469 0 0 1 .096-.843 12.18 12.18 0 0 1 10.39 1.166.468.468 0 0 1 .117.688 17.966 17.966 0 0 1-4.909 4.336A19.854 19.854 0 0 0 10.93 4.32zm4.021 6.227A17.93 17.93 0 0 0 8.388 5.05a.462.462 0 0 0-.468.038 12.236 12.236 0 0 0-4.493 6.094.469.469 0 0 0 .351.605 17.696 17.696 0 0 0 11.173-1.24zm12.164 3.128a12.165 12.165 0 0 0-3.42-7.206.469.469 0 0 0-.704.04 19.821 19.821 0 0 1-5.354 4.734 19.654 19.654 0 0 1 1.588 3.504 19.643 19.643 0 0 1 7.377-.56.47.47 0 0 0 .513-.509v-.003zm-7.372 2.87a19.657 19.657 0 0 1 .04 8.827.47.47 0 0 0 .666.526 12.216 12.216 0 0 0 6.63-9.287.47.47 0 0 0-.41-.526 17.864 17.864 0 0 0-6.926.469v-.008zm-2.302-1.224a17.784 17.784 0 0 0-1.452-3.189 19.571 19.571 0 0 1-8.489 1.93 19.77 19.77 0 0 1-4.087-.427.47.47 0 0 0-.564.417 12.154 12.154 0 0 0 3.83 9.844.468.468 0 0 0 .72-.108 19.805 19.805 0 0 1 10.042-8.463v-.004zm-8.57 9.67a.469.469 0 0 0 .177.641 12.173 12.173 0 0 0 8.069 1.37.46.46 0 0 0 .358-.31c.605-1.817.913-3.72.914-5.635 0-1.319-.146-2.634-.438-3.92a17.923 17.923 0 0 0-9.08 7.853z"/></svg>