<svg xmlns="http://www.w3.org/2000/svg" width="20" height="20" fill="none"><path fill="#999" d="M1.864 1.907a.625.625 0 1 0-.395 1.186l.22.074c.565.187.937.313 1.212.44.26.121.372.219.444.319.072.1.129.237.161.522.035.3.036.694.036 1.288v2.226c0 1.14 0 2.059.097 2.781.1.75.316 1.382.818 1.883.502.502 1.133.718 1.883.819.723.097 1.641.097 2.781.097h5.88a.625.625 0 0 0 0-1.25H9.166c-1.196 0-2.03-.002-2.66-.086-.612-.082-.935-.233-1.166-.463-.196-.197-.334-.46-.422-.91h8.433c.8 0 1.2 0 1.512-.206.313-.207.47-.574.786-1.309l.357-.833c.674-1.574 1.012-2.361.641-2.923C16.278 5 15.421 5 13.71 5H4.788a7.498 7.498 0 0 0-.04-.694c-.046-.404-.146-.775-.389-1.111-.242-.337-.562-.55-.931-.721-.347-.161-.788-.308-1.31-.482l-.254-.085zM6.25 15a1.25 1.25 0 1 1 0 2.5 1.25 1.25 0 0 1 0-2.5zm7.5 0a1.25 1.25 0 1 1 0 2.5 1.25 1.25 0 0 1 0-2.5z"/></svg>