<svg xmlns="http://www.w3.org/2000/svg" width="20" height="20" fill="none"><path fill="#999" fill-rule="evenodd" d="M17.427 4.907c.281.42.281 1.006.281 2.176v10.625h.417a.625.625 0 1 1 0 1.25H1.458a.625.625 0 0 1 0-1.25h.417V7.083c0-1.17 0-1.755.28-2.176.122-.182.279-.338.46-.46.368-.245.862-.276 1.763-.28-.003.243-.003.497-.003.758v1.117h-.833a.625.625 0 1 0 0 1.25h.833v1.25h-.833a.625.625 0 1 0 0 1.25h.833v1.25h-.833a.625.625 0 1 0 0 1.25h.833v5.416h1.25V5c0-1.571 0-2.357.488-2.845s1.274-.488 2.845-.488h1.667c1.571 0 2.357 0 2.845.488s.488 1.274.488 2.845v12.708h1.25v-5.416h.834a.625.625 0 1 0 0-1.25h-.834v-1.25h.834a.625.625 0 1 0 0-1.25h-.834v-1.25h.834a.625.625 0 1 0 0-1.25h-.834V4.925c0-.261 0-.515-.003-.758.901.004 1.395.035 1.763.28.181.122.338.278.46.46zm-7.01 10.926a.625.625 0 1 0-1.25 0v1.875h1.25v-1.875zM7.5 12.5c0-.345.28-.625.625-.625h3.333a.625.625 0 0 1 0 1.25H8.125A.625.625 0 0 1 7.5 12.5zm.625-3.125a.625.625 0 1 0 0 1.25h3.333a.625.625 0 0 0 0-1.25H8.125zm-.417-3.542a2.292 2.292 0 1 1 4.584 0 2.292 2.292 0 0 1-4.584 0zm1.25 0a1.042 1.042 0 1 1 2.084 0 1.042 1.042 0 0 1-2.084 0z" clip-rule="evenodd"/></svg>