<svg xmlns="http://www.w3.org/2000/svg" width="100" height="40" fill="none"><g clip-path="url(#a)"><path fill="#999" d="M12.902 27.796H9.68v-8.033H7.484v-2.616H9.68v-1.86c0-2.206.97-3.788 4.184-3.788.68 0 1.747.137 1.747.137v2.429h-1.12c-1.143 0-1.589.347-1.589 1.307v1.775h2.667l-.238 2.616h-2.429v8.033zm7.394-10.858-.143.003c-2.988 0-4.355 2.247-4.355 5.438 0 4.02 1.774 5.628 4.379 5.628 1.49 0 2.47-.627 3.065-1.798v1.588h3.065V17.148h-3.065v1.638c-.486-1.054-1.492-1.836-2.945-1.848zm.78 2.517c1.255 0 2.008.875 2.008 2.364l.003 1.52c0 1.005-.622 2.179-2.011 2.179-2.136 0-2.079-2.306-2.079-3.074 0-2.584 1.138-2.99 2.079-2.99zm6.469 3.018c0-1.294-.062-5.528 5.454-5.528 2.215 0 3.14.704 3.14.704l-.744 2.305s-.924-.508-2.127-.508c-1.541 0-2.524.893-2.524 2.465l.001 1.127c0 1.511.95 2.52 2.526 2.52 1.096 0 2.107-.514 2.107-.514l.741 2.257s-.845.709-3.105.709c-5.252 0-5.47-3.8-5.47-5.537zm26.565-5.532c2.989 0 4.377 2.248 4.377 5.439 0 4.02-1.773 5.628-4.378 5.628-1.49 0-2.593-.628-3.188-1.799v1.588l-3.026-.001V11.822l3.213-.28v7.1c.464-1.242 1.988-1.7 3.003-1.7zm-.9 2.514c-1.255 0-2.102.875-2.102 2.364l-.003 1.52c-.002 1.005.586 2.179 2.105 2.179 2.135 0 2.078-2.306 2.078-3.074 0-2.584-1.138-2.99-2.078-2.99zM41.714 16.95c-3.39 0-5.179 1.848-5.179 5.131v.61c0 4.263 2.513 5.36 5.509 5.36 2.995 0 4.23-.814 4.23-.814l-.602-2.17s-1.55.66-3.243.66c-1.692 0-2.51-.447-2.703-2.133h6.805v-1.74c0-3.562-2.008-4.904-4.817-4.904zm.082 2.171c1.173 0 1.933.72 1.892 2.388h-3.956c.069-1.756.889-2.388 2.064-2.388zm23.099-2.186c-3.48 0-5.313 1.961-5.313 5.476 0 4.823 3.158 5.6 5.319 5.6 3.162 0 5.266-1.703 5.266-5.556 0-3.853-2.366-5.52-5.272-5.52zm-.044 2.528c1.53 0 2.137 1.145 2.137 2.45v1.12c0 1.58-.848 2.493-2.143 2.493-1.21 0-2.06-.854-2.06-2.493v-1.12c0-1.748 1.011-2.45 2.066-2.45zm11.718-2.528c-3.48 0-5.313 1.961-5.313 5.476 0 4.823 3.158 5.6 5.319 5.6 3.162 0 5.266-1.703 5.266-5.556 0-3.853-2.366-5.52-5.272-5.52zm-.044 2.528c1.53 0 2.137 1.145 2.137 2.45v1.12c0 1.58-.849 2.493-2.143 2.493-1.21 0-2.061-.854-2.061-2.493v-1.12c0-1.748 1.012-2.45 2.067-2.45zm6.53 8.333V11.822l3.223-.28V22.25l3.197-5.102h3.404l-3.336 5.284 3.464 5.365h-3.413l-3.316-5.21v5.21h-3.223z"/></g><defs><clipPath id="a"><path fill="#fff" d="M7.484 11.499h85.523v16.552H7.484z"/></clipPath></defs></svg>