<svg xmlns="http://www.w3.org/2000/svg" width="20" height="20" fill="none"><path fill="#999" d="M9.375 6.54c-.78.213-1.25.811-1.25 1.377 0 .565.47 1.164 1.25 1.377V6.54zm1.25 4.166v2.755c.78-.214 1.25-.812 1.25-1.378 0-.565-.47-1.164-1.25-1.377z"/><path fill="#999" fill-rule="evenodd" d="M18.333 10a8.333 8.333 0 1 1-16.666 0 8.333 8.333 0 0 1 16.666 0zM10 4.375c.345 0 .625.28.625.625v.264c1.359.243 2.5 1.264 2.5 2.653a.625.625 0 0 1-1.25 0c0-.566-.47-1.164-1.25-1.377v2.89c1.359.244 2.5 1.265 2.5 2.653 0 1.389-1.141 2.41-2.5 2.653V15a.625.625 0 0 1-1.25 0v-.264c-1.359-.243-2.5-1.264-2.5-2.653a.625.625 0 1 1 1.25 0c0 .566.47 1.164 1.25 1.377v-2.89c-1.359-.244-2.5-1.265-2.5-2.653 0-1.389 1.141-2.41 2.5-2.653V5c0-.345.28-.625.625-.625z" clip-rule="evenodd"/></svg>