<svg xmlns="http://www.w3.org/2000/svg" width="21" height="20" fill="none"><path fill="#A291FD" d="M6.088 9.176c1.054.703 2.485.906 3.702.906 1.701 0 2.994-.357 3.875-1.075.883-.717 1.323-1.658 1.323-2.824 0-1.347-.704-2.61-1.925-3.219a5.714 5.714 0 0 0-1.228-.456 8.748 8.748 0 0 0-2.045-.225c-1.7 0-2.993.36-3.875 1.076-.883.718-1.323 1.659-1.323 2.824 0 .693.13 1.288.39 1.784.268.511.651.906 1.106 1.21zm2.485-5.663c.291-.504.696-.757 1.217-.757.52 0 .926.253 1.217.757.292.503.438 1.394.438 2.67 0 1.275-.146 2.166-.438 2.67-.29.504-.696.756-1.217.756-.52 0-.926-.25-1.217-.756-.291-.504-.438-1.395-.438-2.67 0-1.276.145-2.167.438-2.67zm6.357 8.661c-.67-.685-1.595-1.027-2.776-1.027h-4.49c-.709 0-1.202-.071-1.477-.213-.22-.112-.393-.299-.41-.554-.014-.207.086-.363.202-.518-.758-.065-1.575.367-1.823 1.098-.34 1.002-.051 2.11.789 2.761.63.489 1.536.734 2.718.734h4.49c1.89 0 2.835.511 2.835 1.536 0 .803-.445 1.477-1.335 2.02-.99.604-2.159.886-3.308.953a8.11 8.11 0 0 1-3.518-.568 1.87 1.87 0 0 0 .75-1.492 1.809 1.809 0 0 0-.788-1.466 1.758 1.758 0 0 0-1.653-.15 1.942 1.942 0 0 0-.858.77c-.196.321-.31.7-.27 1.074.046.432.296.825.622 1.111.94.83 2.433 1.076 3.638 1.208 1.357.15 2.684.04 4.015-.239 1.097-.23 2.2-.745 2.904-1.647.544-.696.748-1.653.748-2.519 0-1.23-.335-2.186-1.005-2.872zm2.607-7.169a1.801 1.801 0 1 0-1.261-3.374 1.801 1.801 0 0 0 1.261 3.374z"/></svg>