<svg xmlns="http://www.w3.org/2000/svg" width="20" height="20" fill="none"><path fill="#A291FD" fill-rule="evenodd" d="M1.69 9.375A8.334 8.334 0 0 1 10 1.667c-.693 0-1.31.303-1.816.767-.505.462-.931 1.107-1.276 1.869-.347.766-.617 1.663-.799 2.636a16.54 16.54 0 0 0-.265 2.436H1.69zm0 1.25h4.154c.03.835.119 1.657.265 2.437.182.973.452 1.869.799 2.636.345.761.771 1.406 1.276 1.868.507.464 1.123.767 1.816.767a8.334 8.334 0 0 1-8.31-7.708z" clip-rule="evenodd"/><path fill="#A291FD" d="M10 2.83c-.23 0-.526.097-.87.412-.347.317-.694.815-1 1.493-.305.673-.553 1.485-.723 2.394a15.41 15.41 0 0 0-.246 2.246h5.678a15.41 15.41 0 0 0-.247-2.246c-.17-.909-.417-1.721-.722-2.394-.307-.678-.654-1.176-1-1.493-.345-.315-.641-.412-.87-.412zM7.407 12.872c.17.908.418 1.72.722 2.394.307.677.654 1.175 1.001 1.492.344.315.64.413.87.413.229 0 .525-.098.87-.413.346-.317.693-.815 1-1.492.305-.674.552-1.486.722-2.394a15.41 15.41 0 0 0 .247-2.247H7.16c.029.773.112 1.531.246 2.247z"/><path fill="#A291FD" d="M10 1.667c.692 0 1.309.303 1.816.767.504.462.93 1.107 1.276 1.869.346.766.616 1.663.798 2.636.147.78.236 1.602.265 2.436h4.155A8.334 8.334 0 0 0 10 1.667zm3.89 11.395c-.182.973-.452 1.869-.798 2.636-.345.761-.772 1.406-1.276 1.868-.507.464-1.124.767-1.816.767a8.334 8.334 0 0 0 8.31-7.708h-4.155a16.47 16.47 0 0 1-.265 2.437z"/></svg>