<svg xmlns="http://www.w3.org/2000/svg" width="20" height="20" fill="none"><path fill="#CCC" d="M10.458 2.866c-.36-.775-.54-1.163-.857-1.196-.317-.032-.562.312-1.051 1l-.127.177c-.139.196-.209.293-.309.352-.1.06-.22.072-.458.1l-.217.024c-.84.094-1.261.14-1.386.433s.128.638.634 1.327l.131.179c.144.195.216.293.242.408.026.115.003.233-.042.47l-.041.216c-.16.833-.24 1.25 0 1.464.24.213.642.082 1.444-.18l.207-.067c.228-.074.342-.112.459-.1.116.013.221.072.432.192l.192.109c.742.421 1.112.631 1.386.47.273-.16.268-.585.258-1.437l-.003-.22c-.003-.242-.004-.362.041-.47.046-.107.134-.188.31-.351l.16-.149c.618-.573.927-.86.856-1.173-.072-.313-.476-.445-1.285-.71l-.209-.067c-.23-.076-.344-.113-.432-.191-.088-.079-.14-.189-.242-.41l-.093-.2z"/><path fill="#CCC" fill-rule="evenodd" d="M18.874 7.602a.625.625 0 0 1-.225.855c-4.76 2.776-5.94 7.259-5.94 9.876a.625.625 0 1 1-1.25 0c0-2.938 1.32-7.9 6.56-10.956a.625.625 0 0 1 .855.225zM9.339 9.399c.332.095.524.44.429.773-.305 1.069-.379 2.62-.33 4.173.047 1.538.211 3.013.347 3.893a.625.625 0 1 1-1.236.19 35.663 35.663 0 0 1-.36-4.044c-.05-1.578.016-3.291.377-4.556a.625.625 0 0 1 .773-.429z" clip-rule="evenodd"/><path fill="#CCC" d="M4.278 11.471c-.02-.09.124-.172.192-.11.198.177.465.38.715.447.25.067.583.025.844-.03.09-.02.172.124.11.192-.177.198-.38.466-.447.715-.067.25-.025.583.03.844.019.09-.124.172-.192.11-.198-.177-.466-.38-.716-.447-.25-.067-.583-.025-.843.03-.09.019-.172-.124-.111-.192.178-.198.38-.466.448-.715.067-.25.025-.583-.03-.844z"/></svg>