<svg xmlns="http://www.w3.org/2000/svg" width="100" height="40" fill="none"><path fill="#999" d="M33.02 18.182a1.81 1.81 0 1 0 0-3.62 1.81 1.81 0 0 0 0 3.62zm59.718 6.184c-.276-.193-.488-.225-.665.15-3.039 6.583-8.16 3.298-7.651 3.587 1.136-.52 4.124-2.916 3.672-6.224-.274-2.022-2.01-2.92-3.852-2.598-3.215.56-4.398 4.029-3.796 7.1.105.527.293.962.482 1.387-3.634 2.956-5.077-2.645-5.24-3.314-.007-.036 2.805-2.38 3.587-7.965.82-5.854-1.047-6.92-2.957-6.887-3.534.062-4.489 7.445-3.206 13.598-.108.028-.608.305-1.41.336-.579-1.82-3.05-3.414-3.696-2.8-1.618 1.538.393 4.543 1.807 4.779-.85 5.234-6.164 3.937-5.175-2.62 1.73-3.214 3.047-7.993 2.812-10.878-.083-1.021-.838-2.39-2.546-2.322-3.285.13-3.642 7.515-3.257 12.757-.019-.13-.202.636-1.547 1.017-.319-1.767-3.165-3.541-3.835-2.688-1.254 1.596.92 4.442 1.95 4.64-.85 5.235-6.165 3.939-5.176-2.619 1.73-3.214 3.047-7.993 2.812-10.877-.083-1.022-.838-2.39-2.546-2.323-3.285.13-3.642 7.515-3.257 12.757-.02-.13-.206.66-1.607 1.035-.047-2.293-2.903-3.345-3.59-2.613-1.222 1.304.28 3.98 1.67 4.641-.849 5.234-6.163 3.938-5.174-2.62 1.73-3.213 3.047-7.992 2.812-10.877-.083-1.022-.838-2.39-2.546-2.322-3.285.13-3.55 7.886-3.164 13.128-1.082 4.635-4.71 10.424-4.24-1.172.047-.814.098-1.123-.308-1.427-.304-.237-.995-.123-1.372-.114-.46.019-.574.287-.676.694-.237 1.048-.279 2.064-.313 3.451-.022.65-.074.952-.324 1.837-.25.884-1.673 2.5-2.452 2.23-1.082-.372-.727-3.424-.524-5.521.169-1.657-.372-2.402-1.757-2.673-.81-.169-1.303-.143-2.148-.409-.799-.251-.98-1.762-2.683-1.259-.931.276-.332 2.25-.556 3.713-1.101 7.197-3.392 7.395-4.455 3.899 4.786-11.723 1.385-16.344-.606-16.344-1.992 0-4.445 1.429-3.441 10.569-.488-.143-.638-.22-1.173-.22-3.021 0-5.08 2.444-5.08 5.457s2.059 5.456 5.08 5.456c1.784 0 3.037-.81 3.986-2.066.618.887 1.372 2.08 2.75 2.026 4.108-.16 5.303-8.586 5.444-9.056.44.068.855.196 1.26.264.676.1.725.368.71 1.048-.18 5.731.878 7.738 3.277 7.738 1.337 0 2.528-1.313 3.348-2.253.613 1.266 1.59 2.214 2.9 2.252 3.176.08 4.391-4.981 4.28-4.315-.087.522 1.03 4.287 4.3 4.3 4.048.018 4.8-4.435 4.89-5.18.017-.134.012-.15 0 0l-.003.044c1.286-.239 1.949-.928 1.949-.928s1.032 6.134 4.855 6.065c3.97-.072 4.72-4.097 4.818-4.882.02-.164.013-.186 0 0l-.002.023c1.527-.555 1.929-1.113 1.929-1.113s.82 6.012 4.855 6.065c3.596.047 4.928-3.636 4.936-5.177.607.007 1.728-.36 1.702-.38 0 0 1.317 5.256 4.995 5.526 1.727.127 3.023-.972 3.761-1.473 1.736 1.405 7.514 3.2 11.163-2.986.515-.888-.592-1.937-.787-2.074zm-81.462 4.492c-1.763 0-2.894-1.63-2.894-3.388s1.038-3.388 2.8-3.388c.794 0 1.236.087 1.854.625.112.441.43 1.46.584 1.922.207.619.453 1.146.701 1.72-.354 1.47-1.518 2.509-3.045 2.509zm4.296-6.1c-.073-.117-.058-.045-.14-.155-.323-.88-.946-2.842-1.018-5.07-.082-2.522.338-5.477 1.578-5.477.839 0 1.731 5.99-.42 10.702zm24.825-2.627c-.199-1.496-.21-8.166 1.392-7.983.884.358-.56 6.652-1.392 7.983zm11.692 0c-.198-1.496-.209-8.166 1.392-7.983.884.358-.56 6.652-1.392 7.983zm11.6.093c-.2-1.497-.21-8.167 1.392-7.983.884.358-.56 6.652-1.392 7.983zm12.806-8.466c1.464-.152 1.403 6.241-1.535 10.277-.38-1.458-.96-9.776 1.535-10.277zm6.153 13.757c-.47-2.376.745-3.936 1.997-4.107.438-.07 1.072.214 1.199.744.208 1-.03 2.482-2.833 4.362.004.016-.258-.47-.363-1z"/></svg>