<svg xmlns="http://www.w3.org/2000/svg" width="20" height="20" fill="none"><path fill="#A291FD" d="m16.891 13.554.588-3.4a1.388 1.388 0 0 0-1.367-1.626h-4.317a.694.694 0 0 1-.685-.806l.553-3.37a3.984 3.984 0 0 0-.076-1.646 1.362 1.362 0 0 0-.91-.947l-.12-.039a1.121 1.121 0 0 0-.828.057c-.284.136-.49.385-.568.681l-.396 1.528c-.126.487-.31.956-.547 1.4-.346.647-.881 1.166-1.437 1.645l-1.2 1.034a1.39 1.39 0 0 0-.476 1.172l.676 7.827a1.39 1.39 0 0 0 1.383 1.27h3.873c2.902 0 5.377-2.022 5.854-4.78z"/><path fill="#A291FD" fill-rule="evenodd" d="M2.473 7.904a.625.625 0 0 1 .65.57l.81 9.365a1.03 1.03 0 1 1-2.058.088V8.53c0-.335.264-.61.598-.625z" clip-rule="evenodd"/></svg>