<svg xmlns="http://www.w3.org/2000/svg" width="24" height="24" fill="none"><path fill="#999" d="M10.423 1.001h.605c.036.016.072.044.11.048.435.04.801.22 1.11.521.29.283.58.563.871.843a.36.36 0 0 0 .425.078c.863-.37 1.746-.673 2.69-.766.567-.055 1.128-.038 1.674.134.666.21 1.147.612 1.31 1.305.118.497.033.985-.145 1.459-.304.803-.803 1.478-1.392 2.098-.032.033-.062.068-.093.103.02.025.031.042.045.055.578.583.847 1.308.938 2.094.068.59.075 1.188.098 1.783.005.12.037.185.158.204a.401.401 0 0 1 .08.023c.397.14.801.265 1.188.427.343.145.646.362.847.686.36.579.324 1.157-.016 1.733-.027.044-.047.113-.032.16.091.3.192.596.294.893.01.03.044.065.075.075.415.124.693.456.723.88a4.721 4.721 0 0 1-.16 1.647c-.492 1.714-1.51 3.052-2.99 4.052-1.039.701-2.195 1.123-3.437 1.315-.714.111-1.43.178-2.154.136-.69-.04-1.372-.112-2.041-.285-1.65-.428-3.093-1.203-4.25-2.457a7.593 7.593 0 0 1-1.378-2.085c-.015-.035-.076-.068-.117-.07a3.005 3.005 0 0 1-1.146-.252c-1.656-.726-2.604-2.392-1.944-4.255.023-.067 0-.102-.048-.141-.198-.162-.394-.328-.593-.49-.367-.3-.61-.674-.686-1.14a3.297 3.297 0 0 1 .035-1.231c.188-.879.569-1.682 1.016-2.457.682-1.182 1.525-2.248 2.46-3.245 1.004-1.068 2.099-2.03 3.348-2.813.644-.405 1.318-.75 2.066-.928.177-.042.36-.063.548-.095A6.913 6.913 0 0 0 10.423 1v.001zm6.073 15.687c.006.015.01.03.017.046-.044.027-.085.067-.133.081-.961.293-1.929.27-2.899.055-.178-.04-.353-.092-.54-.142-.005.179.07.315.172.44.216.27.519.397.84.484.856.232 1.723.232 2.589.087 1.146-.192 2.214-.605 3.213-1.188.136-.08.267-.167.4-.25a.377.377 0 0 1-.09.161c-.478.54-1.08.911-1.74 1.193-1.172.502-2.398.726-3.676.616-.588-.051-1.146-.212-1.641-.544a1.369 1.369 0 0 1-.497-1.667c.164-.38.535-.746 1.09-.674.224.028.448.06.672.071.992.049 1.972-.017 2.937-.26.897-.224 1.745-.557 2.49-1.111.267-.198.497-.429.645-.73.196-.4.115-.808-.243-1.075a2.284 2.284 0 0 0-.578-.317c-.391-.142-.794-.254-1.194-.377-.204-.062-.335-.184-.362-.399-.026-.212-.054-.425-.069-.638-.037-.538-.048-1.078-.105-1.614a2.349 2.349 0 0 0-.216-.712c-.152-.328-.445-.492-.806-.495a1.08 1.08 0 0 0-.69.25 7.93 7.93 0 0 1-.392.3 2.176 2.176 0 0 1-.925.383c-.421.064-.836.004-1.254-.025-.301-.02-.603-.06-.904-.049-.504.02-.931.243-1.292.581-.784.737-.986 1.89-.521 2.911.197.435.504.79.818 1.143.112.125.225.25.323.384.094.132.083.197-.017.322-.14.174-.297.337-.42.522-.637.947-.836 1.99-.651 3.102.18 1.083.767 1.917 1.691 2.512 1.136.73 2.4.901 3.72.74a6.496 6.496 0 0 0 2.067-.63c1.203-.587 2.105-1.464 2.65-2.678.207-.458.332-.941.312-1.453-.012-.29-.245-.503-.482-.465-.03.005-.064-.004-.095-.006-.091-.414-.195-.82-.374-1.211-.37.307-.776.534-1.195.737a8.67 8.67 0 0 1-2.8.816c-.714.084-1.428.128-2.146.05-.215-.024-.431-.059-.648-.07-.224-.01-.41.071-.52.28-.07.133-.069.146.074.192.39.128.786.224 1.195.277a9.21 9.21 0 0 0 2.085.038c.037-.004.075.003.112.005h.003zm-13.78-3.812c.075-.096.127-.172.188-.239a2.944 2.944 0 0 1 1.523-.892c.086-.02.15-.047.186-.142.325-.87.736-1.698 1.213-2.494C6.6 7.814 7.54 6.653 8.7 5.668a23.472 23.472 0 0 1 3.765-2.637c.023-.013.043-.032.068-.051-.029-.04-.05-.074-.076-.102l-.813-.831c-.222-.226-.504-.29-.808-.27a4.116 4.116 0 0 0-1.172.265c-1.039.386-1.937 1.001-2.791 1.68A17.198 17.198 0 0 0 4.519 6.01c-.901 1.052-1.673 2.183-2.253 3.437-.264.568-.47 1.158-.508 1.787-.022.373.02.748.295 1.038.202.213.435.398.664.604zm2.791 4.427c.836.04 1.39-.495 1.578-1.13.074-.258.13-.526.15-.792.046-.656-.045-1.298-.373-1.877-.918-1.618-2.797-1.174-3.482-.184-.428.62-.516 1.302-.362 2.014.247 1.14 1.51 2.025 2.488 1.97h.001zm8.06-12.053.474-.412-.02-.036c-.17.012-.346.008-.512.042-.722.145-1.4.403-2.021.802l-.034-.017.298-.725c-.059.017-.074.021-.089.027-.022.009-.044.017-.066.029-1.03.554-1.909 1.293-2.675 2.163-.035.04-.047.099-.074.158.035 0 .044.003.05 0 .126-.085.247-.176.377-.254a8.844 8.844 0 0 1 4.039-1.277c.744-.05 1.48.014 2.209.167.055.011.117-.01.176-.016-.04-.043-.072-.107-.123-.126-.31-.12-.618-.252-.94-.335-.332-.086-.677-.121-1.071-.188l.002-.002z"/><path fill="#999" d="M16.992 11.996c-.181 0-.345.013-.505-.007-.06-.007-.13-.079-.164-.14a2.519 2.519 0 0 1-.311-1.037 2.425 2.425 0 0 1 0-.477c.016-.153.098-.277.256-.32.169-.046.305.017.402.157.203.29.281.629.316.971.028.273.006.553.006.85v.003zM12 11.916c.033-.089.047-.197.103-.263.713-.835 2.053-.914 2.795.023.014.017.03.033.036.053.024.09.044.18.066.271-.08-.01-.163-.007-.238-.034-.171-.065-.337-.15-.509-.216-.54-.215-1.076-.158-1.613.014-.199.063-.397.123-.596.185L12 11.914v.002zm-7.218 1.749c-.255.028-.405.182-.502.528-.027.095-.048.194-.085.28-.023.053-.073.085-.11.127-.025-.055-.064-.106-.073-.165-.08-.541.237-1.217.635-1.38.305-.125.574-.035.802.247.238.296.333.666.247 1.094-.038.187-.1.364-.147.548-.026.103-.055.21-.062.316-.018.268.105.418.31.393.041-.005.082-.016.123-.015.026 0 .069.008.075.03a.19.19 0 0 1-.011.114c-.068.156-.265.252-.413.207-.252-.078-.421-.394-.395-.792.014-.225.066-.445.108-.665.061-.323-.036-.636-.259-.777-.075-.048-.162-.06-.243-.089z"/></svg>