<svg xmlns="http://www.w3.org/2000/svg" width="40" height="40" fill="none"><path fill="#A291FD" fill-rule="evenodd" d="m36.397 18.544-.382 4.059c-.63 6.687-.944 10.031-2.916 12.047-1.97 2.017-4.925 2.017-10.833 2.017h-4.533c-5.908 0-8.862 0-10.833-2.017-1.971-2.016-2.286-5.36-2.915-12.047l-.382-4.06c-.3-3.187-.45-4.78.095-5.44a1.654 1.654 0 0 1 1.125-.612c.793-.07 1.788 1.064 3.78 3.33 1.03 1.173 1.545 1.76 2.119 1.85.318.05.643-.001.936-.15.53-.266.885-.99 1.592-2.44l3.728-7.64C18.314 4.703 18.983 3.333 20 3.333s1.685 1.37 3.021 4.108l3.729 7.64c.707 1.45 1.06 2.174 1.59 2.44.295.149.62.2.937.15.575-.09 1.09-.677 2.12-1.85 1.99-2.266 2.986-3.4 3.78-3.33.428.038.83.256 1.124.613.546.658.396 2.252.096 5.44zM13.75 30c0-.69.56-1.25 1.25-1.25h10a1.25 1.25 0 0 1 0 2.5H15c-.69 0-1.25-.56-1.25-1.25z" clip-rule="evenodd"/></svg>