<svg xmlns="http://www.w3.org/2000/svg" width="20" height="20" fill="none"><path fill="#CCC" d="M6.211 2.26c.312-.791 1.433-.791 1.745 0l.968 2.454a.938.938 0 0 0 .529.529l2.453.968c.792.312.792 1.433 0 1.745l-2.453.968a.938.938 0 0 0-.529.528l-.968 2.454c-.312.792-1.433.792-1.745 0l-.968-2.454a.938.938 0 0 0-.528-.528L2.26 7.956c-.792-.312-.792-1.433 0-1.745l2.454-.968a.938.938 0 0 0 .528-.529l.968-2.453zm7.893 8.9a.515.515 0 0 1 .959 0l.75 1.903a.516.516 0 0 0 .29.29l1.904.75a.515.515 0 0 1 0 .96l-1.903.75a.516.516 0 0 0-.29.29l-.751 1.904a.515.515 0 0 1-.96 0l-.75-1.903a.516.516 0 0 0-.29-.29l-1.904-.751a.515.515 0 0 1 0-.96l1.903-.75a.516.516 0 0 0 .29-.29l.752-1.903z"/></svg>