<svg xmlns="http://www.w3.org/2000/svg" width="20" height="20" fill="none"><path fill="#A291FD" fill-rule="evenodd" d="M9.001 2.141a.592.592 0 0 1-.463.699A7.316 7.316 0 0 0 2.84 8.538a.592.592 0 0 1-1.161-.236A8.5 8.5 0 0 1 8.303 1.68.592.592 0 0 1 9 2.14zM2.142 11a.592.592 0 0 1 .698.462 7.316 7.316 0 0 0 5.7 5.698.592.592 0 0 1-.236 1.162 8.5 8.5 0 0 1-6.624-6.624.592.592 0 0 1 .463-.699zM11 2.141a.592.592 0 0 1 .698-.462 8.5 8.5 0 0 1 6.624 6.623.592.592 0 0 1-1.161.236 7.316 7.316 0 0 0-5.699-5.698.592.592 0 0 1-.462-.7zM17.859 11c.32.064.528.377.463.698a8.5 8.5 0 0 1-6.624 6.623.593.593 0 0 1-.236-1.16 7.316 7.316 0 0 0 5.699-5.699.592.592 0 0 1 .698-.463z" clip-rule="evenodd"/><path fill="#A291FD" fill-rule="evenodd" d="M10 16.32a6.319 6.319 0 1 0 0-12.64 6.319 6.319 0 0 0 0 12.638zm-2.55-4.204a.592.592 0 0 1 .83-.123 2.875 2.875 0 0 0 1.72.574c.637 0 1.23-.21 1.72-.575a.592.592 0 0 1 .707.952 4.06 4.06 0 0 1-2.427.808 4.06 4.06 0 0 1-2.426-.808.592.592 0 0 1-.123-.828zm5.315-3.449c0 .573-.31 1.037-.691 1.037-.382 0-.691-.464-.691-1.037 0-.572.309-1.037.69-1.037.382 0 .692.465.692 1.037zM7.927 9.704c.382 0 .691-.464.691-1.037 0-.572-.31-1.037-.691-1.037-.382 0-.691.465-.691 1.037 0 .573.31 1.037.69 1.037z" clip-rule="evenodd"/></svg>