<svg xmlns="http://www.w3.org/2000/svg" width="24" height="24" fill="none"><g fill="#999" clip-path="url(#a)"><path d="M8.138 22.4H6.833c-.017-.013-.035-.03-.056-.03-.77-.097-1.353-.497-1.819-1.08-.817-1.025-1.63-2.058-2.466-3.075-.696-.852-1.065-1.785-1.026-2.894.048-1.439.013-2.881.013-4.32V4.17c0-.608.16-1.165.557-1.646.521-.637 1.24-.86 2.04-.91l4.462-.305c1.97-.139 3.94-.278 5.911-.421.244-.017.487-.051.727-.08h1.087c.026.012.048.033.074.033a3.24 3.24 0 0 1 1.505.549c1.4.945 2.797 1.898 4.197 2.847.71.481 1.018 1.127 1.014 1.975-.018 3.986-.009 7.973-.009 11.956 0 .35.004.704-.004 1.054-.03 1.207-.735 2.08-1.945 2.338-.56.118-1.148.13-1.722.168-1.079.072-2.153.123-3.232.186-1.322.076-2.644.16-3.967.236-1.083.063-2.17.118-3.253.181-.257.013-.518.043-.783.068zm13.614-9.817c0-2.16-.004-4.316.005-6.476 0-.363-.131-.62-.427-.818-1.326-.903-2.662-1.797-3.975-2.717-.64-.452-1.336-.553-2.097-.49-.896.076-1.792.131-2.688.195-.874.063-1.748.122-2.623.185-1.104.08-2.21.156-3.314.24-.93.068-1.862.127-2.792.212-.47.042-.822.278-.966.73a2.003 2.003 0 0 0-.087.577c-.004 3.789 0 7.577-.009 11.366 0 .544.135 1.033.466 1.46.957 1.219 1.918 2.43 2.892 3.636.24.295.583.447.97.447a34.865 34.865 0 0 0 1.627-.055c1.105-.059 2.214-.13 3.319-.194 1.06-.063 2.127-.122 3.188-.181 1.135-.068 2.27-.13 3.405-.198.653-.038 1.301-.072 1.95-.131.682-.06 1.043-.405 1.139-1.063.013-.106.013-.211.013-.317.004-2.134.004-4.273.004-6.408z"/><path d="M20.448 12.65v5.4c0 .085.004.17-.005.254-.039.485-.278.696-.779.721-1.417.076-2.835.16-4.253.24-1.136.064-2.27.119-3.406.182-1.375.076-2.749.16-4.123.236a3.335 3.335 0 0 1-.544-.004c-.405-.055-.579-.245-.627-.637-.008-.076-.004-.156-.004-.232V7.93c0-.11.009-.224.026-.334.057-.295.218-.447.527-.468.96-.059 1.922-.114 2.883-.169 1.127-.063 2.258-.13 3.384-.194.862-.05 1.723-.092 2.584-.143 1.135-.063 2.27-.13 3.406-.194.065-.004.13-.004.195-.013.592-.063.736.253.736.692v5.543zm-1.95-4.197c-.9.05-1.8.097-2.7.16-.283.021-.496.249-.553.523-.03.144 0 .224.179.232.274.017.543.06.809.089v5.083l-.27-.392a2224.526 2224.526 0 0 1-3.527-5.21c-.079-.118-.157-.152-.3-.14-.318.035-.636.039-.953.06-.587.038-1.17.076-1.753.126-.43.038-.705.452-.561.836.304.025.613.055.922.08v7.303c-.209.059-.405.122-.609.168-.222.05-.326.194-.37.393-.03.143.005.223.187.21.653-.042 1.3-.067 1.953-.105.296-.017.596-.025.888-.072.365-.059.574-.29.595-.628-.321-.068-.643-.148-.97-.207-.152-.03-.217-.08-.213-.245.01-1.7.005-3.4.005-5.104 0-.051.013-.097.021-.186a.97.97 0 0 1 .088.118c.887 1.346 1.774 2.696 2.666 4.042.4.599.809 1.194 1.23 1.784.175.24.41.41.727.452.492.067.922-.093 1.362-.266.187-.072.256-.169.256-.371-.008-2.481-.004-4.962-.004-7.446 0-.46-.005-.477.47-.553.439-.076.535-.333.426-.734zm.541-3.32c-.17.017-.34.038-.51.046-1.83.106-3.657.203-5.489.308-1.791.106-3.588.207-5.38.33-.67.045-1.253-.064-1.766-.52-.4-.354-.848-.654-1.27-.987-.065-.05-.148-.16-.13-.215.026-.076.13-.156.213-.173.239-.047.487-.063.73-.08 1.697-.118 3.397-.232 5.094-.35 1.674-.119 3.349-.245 5.028-.359.522-.034 1 .11 1.427.41.622.434 1.244.868 1.866 1.307.082.06.147.14.221.21a.372.372 0 0 1-.034.073z"/></g><defs><clipPath id="a"><path fill="#fff" d="M1.466.8h21.6v21.6h-21.6z"/></clipPath></defs></svg>