<svg xmlns="http://www.w3.org/2000/svg" width="38" height="38" fill="none"><path fill="#A291FD" fill-rule="evenodd" d="M17.174 34.73C9.29 33.823 3.167 27.126 3.167 19c0-8.745 7.088-15.833 15.833-15.833 8.744 0 15.833 7.088 15.833 15.833 0 8.165-5.197 7.493-9.637 6.92-2.56-.331-4.868-.63-5.781.82-.625.99.05 2.225.878 3.053a2.65 2.65 0 0 1 0 3.747c-.828.828-1.956 1.323-3.119 1.19zm.377-23.647a2.375 2.375 0 1 1-4.75 0 2.375 2.375 0 0 1 4.75 0zm-7.26 9.5a2.375 2.375 0 1 0 0-4.75 2.375 2.375 0 0 0 0 4.75zm17.417 0a2.375 2.375 0 1 0 0-4.75 2.375 2.375 0 0 0 0 4.75zm-4.75-7.125a2.375 2.375 0 1 0 0-4.75 2.375 2.375 0 0 0 0 4.75z" clip-rule="evenodd"/></svg>