<svg xmlns="http://www.w3.org/2000/svg" width="100" height="40" fill="none"><path fill="#999" d="M26.822 16.84c.93 0 1.823-.766 1.978-1.71.184-.92-.447-1.684-1.376-1.684-.93 0-1.822.765-1.98 1.684-.182.944.423 1.71 1.378 1.71zm63.119 2.73h2.08c.286 0 .453-.114.517-.377.1-.408.202-.814.307-1.22.061-.237-.078-.416-.344-.416h-2.053c.148-.582.724-2.47.724-3.7 0-2.457-2.112-4.548-5.109-4.548-3.384 0-5.586 2.244-5.586 5.402 0 .922.348 1.995.779 2.661a9.86 9.86 0 0 0-.557-.015c-2.572 0-4.192 1.378-4.192 3.384 0 1.883 1.502 2.614 2.916 3.101 1.256.433 2.412.634 2.412 1.604 0 .653-.636 1.037-1.881 1.037-1.478 0-2.29-.688-2.497-.949.14-.108.349-.367.349-.798 0-.603-.429-1.096-1.225-1.096-.674 0-1.244.543-1.387 1.258-1.082.875-2.263 1.441-3.938 1.441-1.675 0-2.506-.847-2.506-2.651.387.116 1.394.256 2.06.256 2.793 0 4.696-1.254 4.696-3.765 0-1.35-1.2-2.768-3.573-2.768h-.005c-3.122 0-4.87 1.953-5.634 4.102-.214-.05-.428-.1-.642-.148a4.85 4.85 0 0 0 .293-1.641c0-1.062-.665-2.314-2.445-2.314-1.24 0-2.416.803-3.231 2.006l.346-1.342c.053-.205-.034-.434-.358-.434H58.43c-.26 0-.444.09-.518.384l-1.288 4.998c-.385 1.478-2.376 3.317-4.88 3.317-1.649 0-2.504-.903-2.504-2.708.432.17 1.393.313 2.058.313 2.907 0 4.697-1.254 4.697-3.766 0-1.35-1.2-2.768-3.573-2.768h-.006c-3.514 0-5.668 2.698-6.032 5.757-.152 1.271-1.238 3.017-2.415 3.017-.574 0-.894-.356-.894-.96 0-.522.372-1.798.78-3.398l.573-2.256h1.911c.285 0 .452-.114.516-.377.092-.379.26-1.04.307-1.22.061-.237-.077-.416-.344-.416H44.94s.865-3.41.886-3.499c.083-.347-.21-.547-.518-.483 0 0-1.452.281-1.722.337-.27.054-.48.2-.579.586l-.769 3.059h-1.509c-.284 0-.451.114-.515.377a136 136 0 0 1-.307 1.22c-.062.236.077.416.343.416h1.48c-.011.041-.535 2.011-.959 3.775-.199.848-.867 2.832-1.961 2.832-.654 0-.93-.325-.93-1.024 0-1.1 1.096-3.855 1.096-5.105 0-1.67-.907-2.637-2.764-2.637-1.17 0-2.384.747-2.898 1.403 0 0 .156-.537.209-.743.057-.218-.061-.432-.35-.432h-1.816c-.387 0-.494.204-.55.428L29.5 23.133c-.43 1.669-1.474 3.063-2.59 3.063-.574 0-.83-.355-.83-.96 0-.522.342-1.811.75-3.41.495-1.947.933-3.55.98-3.738.06-.24-.049-.45-.361-.45h-1.827c-.33 0-.45.172-.519.41 0 0-.514 1.924-1.058 4.065-.396 1.553-.832 3.136-.832 3.88 0 1.326.602 2.326 2.26 2.326 1.28 0 2.292-.64 3.065-1.458l-.193.75c-.067.253.014.477.315.477h1.869c.325 0 .45-.13.518-.41.066-.268 1.462-5.694 1.462-5.694.369-1.457 1.282-2.422 2.566-2.422.608 0 1.135.398 1.074 1.172-.068.852-1.107 3.912-1.107 5.254 0 1.017.382 2.332 2.318 2.332 1.32 0 2.292-.625 2.998-1.432.259.856.944 1.432 2.201 1.432 2.09 0 3.349-1.224 4.089-2.455.614 1.43 2.052 2.454 4.16 2.454a6.862 6.862 0 0 0 4.992-2.112l-.368 1.425c-.067.256.047.458.351.458h1.85c.254 0 .434-.127.5-.39.032-.13.3-1.15.677-2.6.722-2.776 1.882-5.656 3.626-5.656.615 0 .867.34.867.875 0 .252-.074.47-.138.587-.845-.166-1.525.247-1.525 1.138 0 .581.619 1.11 1.454 1.11.638 0 1.165-.155 1.586-.435.414.084.827.173 1.24.266a8.01 8.01 0 0 0-.098 1.217c0 2.228 1.61 4.117 4.496 4.117 2.261 0 3.813-.818 5.152-1.865.644 1.04 2.27 1.882 4.403 1.882 2.923 0 4.581-1.502 4.581-3.487 0-1.798-1.493-2.459-3.032-3.01-1.252-.446-2.296-.69-2.296-1.563 0-.717.571-1.044 1.55-1.044.634 0 1.11.135 1.365.205.252.624.774 1.315 1.666 1.315.754 0 1.093-.59 1.093-1.132 0-1.546-2.606-1.707-2.606-5.022 0-2.06 1.18-3.76 3.625-3.76 1.698 0 2.807 1.063 2.807 2.78 0 1.417-.87 3.938-.87 3.938H86.28c-.284 0-.452.114-.516.377-.1.407-.203.814-.308 1.22-.062.237.078.416.344.416h1.442s-1.49 5.434-1.49 6.422c0 1.327.756 2.327 2.414 2.327 2.346 0 3.811-1.506 4.449-3.696.05-.17-.048-.307-.222-.307H91.5c-.178 0-.282.1-.327.273-.202.778-.703 1.595-1.69 1.595-.573 0-.893-.356-.893-.96 0-.522.35-1.744.78-3.398.205-.787.57-2.256.57-2.256l.002.001zm-18.494-.093c.83 0 1.224.545 1.224 1.195 0 1.099-.863 1.77-2.212 1.77a5.822 5.822 0 0 1-1.557-.245c.168-1.01.908-2.72 2.545-2.72zm-19.51 0c.907 0 1.222.545 1.222 1.195 0 1.099-.862 1.77-2.21 1.77a5.818 5.818 0 0 1-1.557-.245c.166-1.01.823-2.72 2.544-2.72zM16.042 9.285c-5.918 0-8.902 4.193-8.902 7.69 0 2.117.81 4 2.55 4.702.286.115.541.004.624-.308.058-.216.194-.761.254-.988.084-.308.051-.417-.179-.686-.501-.584-.822-1.342-.822-2.414 0-3.11 2.355-5.895 6.133-5.895 3.345 0 5.183 2.02 5.183 4.717 0 3.55-1.59 6.544-3.949 6.544-1.303 0-2.278-1.064-1.966-2.37.375-1.56 1.1-3.243 1.1-4.368 0-1.008-.547-1.848-1.68-1.848-1.332 0-2.402 1.361-2.402 3.186 0 1.162.397 1.947.397 1.947l-1.602 6.708c-.476 1.99-.072 4.43-.038 4.677.02.146.21.18.296.07.123-.158 1.71-2.093 2.25-4.027.152-.548.876-3.384.876-3.384.432.816 1.697 1.535 3.043 1.535 4.004 0 6.72-3.608 6.72-8.436 0-3.652-3.129-7.052-7.885-7.052z"/></svg>