<svg xmlns="http://www.w3.org/2000/svg" width="20" height="20" fill="none"><path fill="#999" fill-rule="evenodd" d="M10 2.292c-.815 0-1.51.52-1.768 1.25a.625.625 0 1 1-1.179-.417 3.126 3.126 0 0 1 5.894 0 .625.625 0 1 1-1.178.417A1.876 1.876 0 0 0 10 2.292z" clip-rule="evenodd"/><path fill="#999" d="M11.667 10.417H8.333a.417.417 0 0 0-.416.416v1.802c0 .17.103.323.262.386l.583.234a3.333 3.333 0 0 0 2.476 0l.583-.234a.417.417 0 0 0 .262-.386v-1.802a.417.417 0 0 0-.416-.416z"/><path fill="#999" d="m6.676 12.808-4.171-1.252c.025 2.596.177 4.986 1.093 5.8 1.099.977 2.866.977 6.402.977 3.535 0 5.303 0 6.401-.976.917-.815 1.069-3.205 1.094-5.8l-4.17 1.25a1.667 1.667 0 0 1-1.04 1.375l-.583.233a4.583 4.583 0 0 1-3.404 0l-.584-.233a1.667 1.667 0 0 1-1.038-1.374zM6.34 4.167h7.32c2.041 0 3.062 0 3.751.56.133.108.254.23.361.362.561.69.561 1.71.561 3.752 0 .518 0 .777-.125.979a.823.823 0 0 1-.083.111c-.158.179-.406.253-.902.402l-3.89 1.167v-.667c0-.92-.746-1.666-1.666-1.666H8.333c-.92 0-1.666.746-1.666 1.666v.667l-3.89-1.167c-.496-.149-.744-.223-.902-.402a.833.833 0 0 1-.083-.111c-.125-.202-.125-.461-.125-.98 0-2.041 0-3.062.56-3.751a2.5 2.5 0 0 1 .362-.362c.689-.56 1.71-.56 3.752-.56z"/></svg>