<svg xmlns="http://www.w3.org/2000/svg" width="20" height="20" fill="none"><path fill="#E6E6E6" fill-rule="evenodd" d="M2.643 2.643c-.976.976-.976 2.548-.976 5.69v3.334c0 3.142 0 4.714.976 5.69.977.976 2.548.976 5.69.976h3.334c3.143 0 4.714 0 5.69-.976.977-.976.977-2.548.977-5.69V8.333c0-3.142 0-4.714-.977-5.69-.976-.976-2.547-.976-5.69-.976H8.334c-3.143 0-4.714 0-5.69.976zm3.951 4.621c.152-.501.413-.936.695-1.236.3-.319.543-.403.647-.403.255 0 .597.148.909.847.315.707.53 1.856.53 3.528 0 1.749.221 3.1.64 4.038.422.945 1.112 1.587 2.05 1.587.603 0 1.152-.367 1.556-.796a4.424 4.424 0 0 0 .982-1.732.625.625 0 0 0-1.197-.361 3.176 3.176 0 0 1-.695 1.236c-.3.319-.542.403-.646.403-.255 0-.597-.148-.909-.847-.315-.707-.53-1.856-.53-3.528 0-1.749-.221-3.1-.64-4.038-.422-.946-1.112-1.587-2.05-1.587-.603 0-1.153.367-1.556.796a4.423 4.423 0 0 0-.982 1.731.625.625 0 0 0 1.196.362zM5 9.375a.625.625 0 1 0 0 1.25h2.917a.625.625 0 0 0 0-1.25H5zm7.084 0a.625.625 0 1 0 0 1.25H15a.625.625 0 0 0 0-1.25h-2.916z" clip-rule="evenodd"/></svg>