<svg xmlns="http://www.w3.org/2000/svg" width="20" height="20" fill="none"><path fill="#CCC" d="M11.412 2.5H9.167a7.5 7.5 0 1 0 0 15h2.245v-3.75H9.12a3.75 3.75 0 1 1 0-7.5h2.292V2.5zm1.25 3.75h1.088C14.44 6.25 15 5.69 15 5V3.75c0-.69-.56-1.25-1.25-1.25h-1.088v3.75zm0 7.5v3.75h1.088c.69 0 1.25-.56 1.25-1.25V15c0-.69-.56-1.25-1.25-1.25h-1.088zm4.134-6.554a.625.625 0 0 0-1.096.6l.004.008c.005.012.016.036.03.073.03.072.074.195.119.372.09.353.189.926.189 1.751 0 .825-.098 1.398-.189 1.751a3.054 3.054 0 0 1-.15.445l-.003.008a.625.625 0 0 0 1.096.6l-.546-.304.546.303h.001V12.8l.002-.002.003-.006.008-.015a1.915 1.915 0 0 0 .085-.19c.05-.123.11-.297.169-.526.118-.46.228-1.137.228-2.062 0-.925-.11-1.602-.228-2.061a4.303 4.303 0 0 0-.169-.527 2.534 2.534 0 0 0-.085-.19l-.008-.015-.003-.006-.001-.002-.001-.001s0-.002-.547.302l.546-.304z"/><path fill="#CCC" d="M19.586 12.372a9.406 9.406 0 0 1-.46 1.665c-.17.441-.343.77-.478.995a3.892 3.892 0 0 1-.24.355l-.007.008-.002.003-.001.001-.001.001a.625.625 0 0 1-.963-.796l.002-.004a2.642 2.642 0 0 0 .14-.21c.1-.166.24-.43.382-.802.135-.35.273-.796.38-1.347A11.37 11.37 0 0 0 18.542 10c0-.418-.019-.806-.051-1.163-.098-1.07-.319-1.87-.533-2.425a5.17 5.17 0 0 0-.382-.801 2.653 2.653 0 0 0-.14-.211l-.003-.004a.625.625 0 0 1 .964-.796l.002.001.002.003.007.008a1.596 1.596 0 0 1 .071.095c.044.061.102.147.169.26.135.224.307.554.477.995.251.653.495 1.546.605 2.703.04.411.062.855.062 1.334m0 .001c0 .913-.082 1.701-.206 2.372z"/></svg>