<svg xmlns="http://www.w3.org/2000/svg" width="20" height="20" fill="none"><path fill="#A291FD" fill-rule="evenodd" d="M17.5 9.918v-4.56c0-1.891 0-2.837-.59-3.354-.589-.517-1.49-.362-3.291-.05l-.879.151c-1.367.236-2.05.354-2.74.354-.69 0-1.373-.118-2.74-.354l-.879-.152c-1.801-.31-2.702-.466-3.292.05C2.5 2.522 2.5 3.468 2.5 5.359v4.56c0 4.74 3.532 7.041 5.749 8.018.601.265.902.397 1.751.397.85 0 1.15-.132 1.751-.397 2.216-.977 5.749-3.278 5.749-8.018zM5.976 7.617c.103-.214.488-.506 1.107-.506.62 0 1.005.292 1.108.506.154.32.53.45.838.29a.659.659 0 0 0 .28-.87c-.382-.792-1.306-1.22-2.226-1.22-.92 0-1.843.428-2.225 1.22a.659.659 0 0 0 .28.87c.308.16.683.03.838-.29zm6.94-.506c-.619 0-1.004.292-1.107.506a.615.615 0 0 1-.838.29.659.659 0 0 1-.28-.87c.382-.792 1.306-1.22 2.226-1.22.92 0 1.843.428 2.225 1.22.155.32.03.71-.28.87a.615.615 0 0 1-.838-.29c-.103-.214-.488-.506-1.107-.506zm-6.259 5.007a.67.67 0 0 1-.026-.92.624.624 0 0 1 .89-.018c.015.013.055.044.084.065.084.06.224.148.423.239.395.18 1.039.377 1.972.377s1.577-.197 1.973-.378c.198-.09.338-.178.422-.238a1.272 1.272 0 0 0 .097-.075v-.001a.61.61 0 0 1 .877.029.664.664 0 0 1-.021.916h-.001l-.002.002-.002.002-.006.006-.017.016-.05.043c-.04.035-.097.08-.168.13a3.8 3.8 0 0 1-.627.356c-.552.252-1.366.487-2.475.487s-1.923-.235-2.475-.487a3.8 3.8 0 0 1-.627-.355 2.55 2.55 0 0 1-.24-.194v-.002z" clip-rule="evenodd"/></svg>