<svg xmlns="http://www.w3.org/2000/svg" width="18" height="18" fill="none"><path fill="#A291FD" fill-rule="evenodd" d="M1.5 9V6c0-2.121 0-3.182.659-3.841C2.818 1.5 3.879 1.5 6 1.5h6c2.121 0 3.182 0 3.841.659.659.659.659 1.72.659 3.841v3c0 2.121 0 3.182-.659 3.841-.357.357-.832.52-1.53.596a2.235 2.235 0 0 0-.146-.175 8.588 8.588 0 0 0-.305-.31l-1.12-1.105-.413-.419a3.376 3.376 0 0 0-6.654 0l-.413.42-1.12 1.103a8.513 8.513 0 0 0-.305.31c-.037.042-.09.1-.145.176-.698-.075-1.174-.239-1.531-.596C1.5 12.182 1.5 11.121 1.5 9zm5.25-5.063a.563.563 0 0 0 0 1.126h4.5a.562.562 0 1 0 0-1.125h-4.5zM4.687 7.126c0-.31.252-.563.563-.563h7.5a.562.562 0 1 1 0 1.125h-7.5a.563.563 0 0 1-.563-.562z" clip-rule="evenodd"/><path fill="#A291FD" d="M11.25 12a2.25 2.25 0 1 1-4.5 0 2.25 2.25 0 0 1 4.5 0z"/><path fill="#A291FD" d="M6.75 11.938V12a2.25 2.25 0 1 0 0-.062zm-.993.999-.81.8c-.244.239-.365.359-.407.46a.482.482 0 0 0 .195.61c.091.053.256.07.587.103.186.019.28.028.357.056a.633.633 0 0 1 .376.37c.029.078.039.17.058.354.033.325.05.488.104.579a.497.497 0 0 0 .618.192c.103-.042.225-.162.468-.401l.81-.803a3.382 3.382 0 0 1-2.356-2.32zm4.13 2.32.81.803c.243.24.365.36.468.4a.497.497 0 0 0 .618-.191c.054-.09.07-.253.104-.58.02-.183.029-.275.058-.352a.63.63 0 0 1 .375-.37c.079-.029.172-.038.358-.057.33-.033.496-.05.587-.104a.483.483 0 0 0 .195-.609c-.042-.101-.163-.221-.406-.46l-.81-.8a3.382 3.382 0 0 1-2.357 2.32z"/></svg>