<svg xmlns="http://www.w3.org/2000/svg" width="20" height="20" fill="none"><path fill="#E6E6E6" fill-rule="evenodd" d="M8.958 1.667h1.667c2.357 0 3.535 0 4.267.732.733.732.733 1.91.733 4.268v6.666c0 2.357 0 3.536-.733 4.268-.732.732-1.91.732-4.267.732H8.958c-2.357 0-3.536 0-4.268-.732-.732-.732-.732-1.91-.732-4.268V6.667c0-2.357 0-3.536.732-4.268.732-.732 1.911-.732 4.268-.732zm-2.292 9.166c0-.345.28-.625.625-.625h5a.625.625 0 1 1 0 1.25h-5a.625.625 0 0 1-.625-.625zm0-3.333c0-.345.28-.625.625-.625h5a.625.625 0 1 1 0 1.25h-5a.625.625 0 0 1-.625-.625zm0 6.667c0-.345.28-.625.625-.625h2.5a.625.625 0 0 1 0 1.25h-2.5a.625.625 0 0 1-.625-.625zM1.458 3.542c.345 0 .625.28.625.625v11.666a.625.625 0 0 1-1.25 0V4.167c0-.345.28-.625.625-.625zm16.667 0c.345 0 .625.28.625.625v11.666a.625.625 0 0 1-1.25 0V4.167c0-.345.28-.625.625-.625z" clip-rule="evenodd"/></svg>