<svg xmlns="http://www.w3.org/2000/svg" width="20" height="20" fill="none"><path fill="#999" fill-rule="evenodd" d="M1.876 9.9c-.009.147.012.325.053.681l.334 2.857A4.595 4.595 0 0 0 6.828 17.5h3.011a4.596 4.596 0 0 0 4.19-2.708h1.804a3.125 3.125 0 1 0 0-6.25h-1.899a1.664 1.664 0 0 0-.515-.183c-.145-.026-.324-.026-.683-.026H3.93c-.358 0-.538 0-.682.026a1.667 1.667 0 0 0-1.372 1.542zm12.905-.108c.004.036.008.072.01.109.009.146-.012.325-.054.68l-.334 2.857-.013.104h1.443a1.875 1.875 0 1 0 0-3.75h-1.052zM8.775 1.225a.625.625 0 0 1 0 .884.554.554 0 0 0 0 .782 1.804 1.804 0 0 1 0 2.551.625.625 0 1 1-.883-.884.554.554 0 0 0 0-.783 1.804 1.804 0 0 1 0-2.55.625.625 0 0 1 .883 0zm-3.75 1.25a.625.625 0 0 1 0 .884l-.096.096a.576.576 0 0 0-.054.753 1.826 1.826 0 0 1-.17 2.387l-.096.097a.625.625 0 1 1-.884-.884l.096-.097a.576.576 0 0 0 .054-.753 1.826 1.826 0 0 1 .17-2.386l.096-.097a.625.625 0 0 1 .884 0zm7.917 0a.625.625 0 0 1 0 .884l-.097.096a.576.576 0 0 0-.053.753 1.826 1.826 0 0 1-.17 2.387l-.097.097a.625.625 0 0 1-.884-.884l.097-.097a.576.576 0 0 0 .054-.753 1.826 1.826 0 0 1 .17-2.386l.096-.097a.625.625 0 0 1 .884 0z" clip-rule="evenodd"/></svg>