<svg xmlns="http://www.w3.org/2000/svg" width="24" height="24" fill="none"><path fill="#999" d="M19.872 4.713a.23.23 0 0 0-.209-.194l-1.922-.143-1.414-1.406c-.14-.14-.414-.097-.52-.066l-.713.22C14.668 1.9 13.917.775 12.595.775l-.112.003c-.376-.498-.84-.714-1.243-.714-3.08 0-4.55 3.85-5.012 5.806l-2.155.668c-.668.21-.69.23-.777.86-.066.476-1.814 13.991-1.814 13.991L15.1 23.941l7.378-1.597s-2.59-17.511-2.606-17.631zm-5.53-1.356-1.153.357.001-.248c0-.762-.106-1.375-.275-1.861.68.086 1.135.86 1.427 1.752zM12.07 1.756c.19.475.312 1.155.312 2.074v.134l-2.38.737c.458-1.769 1.317-2.623 2.068-2.945zM11.155.89c.133 0 .267.045.395.133-.987.465-2.045 1.634-2.491 3.97l-1.882.582C7.701 3.794 8.943.89 11.155.89z"/><path fill="#999" d="M19.663 4.52c-.086-.008-1.922-.144-1.922-.144L16.327 2.97a.35.35 0 0 0-.197-.09L15.1 23.94l7.378-1.596s-2.59-17.511-2.606-17.631a.23.23 0 0 0-.209-.194z"/><path fill="#2E2E2E" d="m12.595 8.596-.91 2.706s-.797-.425-1.774-.425c-1.432 0-1.504.899-1.504 1.125 0 1.236 3.222 1.71 3.222 4.605 0 2.278-1.445 3.745-3.393 3.745-2.337 0-3.533-1.455-3.533-1.455l.626-2.068s1.229 1.055 2.266 1.055c.677 0 .953-.534.953-.924 0-1.612-2.644-1.684-2.644-4.333 0-2.23 1.6-4.388 4.832-4.388 1.244 0 1.86.357 1.86.357z"/></svg>