<svg xmlns="http://www.w3.org/2000/svg" width="24" height="24" fill="none"><path fill="#A291FD" d="M16.274 19.45c.63.246 1.214.434 1.747.566l.007.001c.954.235 1.712.282 2.25.186.152-.027.28-.064.388-.109.264-.11.408-.268.485-.43.087-.187.128-.458.077-.827a3.722 3.722 0 0 0-.21-.8 7.473 7.473 0 0 0-.487-1.043l-.011-.02c-.03-.053-.06-.107-.092-.16a14.134 14.134 0 0 0-1.022-1.503l-.004-.006c-1.397-1.811-3.49-3.809-6.005-5.595-2.666-1.894-5.246-3.153-7.244-3.681l-.17-.044-.01-.002c-.954-.235-1.712-.282-2.25-.186a1.666 1.666 0 0 0-.513.168.813.813 0 0 0-.36.371c-.112.24-.141.608-.024 1.111.037.157.089.329.157.516a6.714 6.714 0 0 0 .33.75l.03.057.107.199c.293.534.676 1.112 1.145 1.72l.002.004a22.454 22.454 0 0 0 1.784 2.028c.154.157.298.301.432.434l.024-.308c.1-1.286.15-1.929.587-2.158.436-.23.969.107 2.035.78l.276.174c.303.191.455.287.63.31.174.025.351-.026.707-.127l.324-.092c1.25-.355 1.877-.533 2.211-.198.335.334.157.96-.198 2.211l-.092.324c-.101.355-.152.533-.128.708.024.174.12.326.31.629l.175.276c.673 1.066 1.01 1.6.78 2.035-.23.436-.872.487-2.158.587l-.333.026c-.366.029-.548.043-.708.127-.16.084-.279.228-.516.516l-.216.263c-.835 1.014-1.253 1.522-1.73 1.456-.476-.065-.696-.66-1.135-1.848l-.114-.308c-.124-.338-.187-.507-.31-.63-.122-.122-.291-.185-.629-.31l-.308-.113c-1.189-.44-1.783-.66-1.849-1.136-.065-.476.443-.894 1.457-1.73l.14-.114a61 61 0 0 1-.733-.732 23.17 23.17 0 0 1-2.168-2.517 16.88 16.88 0 0 1-.69-1.018 12.734 12.734 0 0 1-.443-.779 8.196 8.196 0 0 1-.436-.98 5.967 5.967 0 0 1-.207-.684c-.176-.746-.17-1.467.124-2.096a2.31 2.31 0 0 1 1.14-1.12c.28-.133.587-.221.907-.272.86-.136 1.891-.02 2.997.272 2.223.587 4.967 1.945 7.73 3.908 2.766 1.964 5.08 4.2 6.584 6.247.497.677.915 1.345 1.23 1.986a8.557 8.557 0 0 1 .4.954c.306.902.4 1.835.029 2.627-.273.58-.727.956-1.271 1.179-.22.09-.454.156-.696.2a4.598 4.598 0 0 1-.751.07 6.878 6.878 0 0 1-.45-.01 8.147 8.147 0 0 1-.942-.112c-.825-.144-1.727-.412-2.672-.781a.75.75 0 0 1 .547-1.397z"/><path fill="#A291FD" fill-rule="evenodd" d="M19.666 2.409a.75.75 0 0 1 .13 1.053l-.112.142c.124.658.426 1.267.87 1.755a.75.75 0 1 1-1.108 1.01 5.069 5.069 0 0 1-1.02-1.697 3.71 3.71 0 0 1-.687.321c.325.591.532 1.247.604 1.927a.75.75 0 1 1-1.491.16 3.614 3.614 0 0 0-.719-1.811l-.158-.006a.75.75 0 0 1 .05-1.499l.408.014c.526-.104.798-.18 1.032-.29.235-.112.47-.275.89-.62l.258-.33a.75.75 0 0 1 1.053-.13z" clip-rule="evenodd"/></svg>