<svg xmlns="http://www.w3.org/2000/svg" width="20" height="20" fill="none"><path fill="#A291FD" fill-rule="evenodd" d="M10 18.333a8.333 8.333 0 1 0 0-16.666 8.333 8.333 0 0 0 0 16.666zm-3.003-5.372a.625.625 0 0 1 .875-.13c.606.45 1.34.71 2.127.71.789 0 1.521-.26 2.128-.71a.625.625 0 0 1 .744 1.005c-.81.6-1.8.956-2.872.956a4.805 4.805 0 0 1-2.872-.957.625.625 0 0 1-.13-.874zm6.336-4.211c0 .69-.373 1.25-.834 1.25-.46 0-.833-.56-.833-1.25s.373-1.25.833-1.25c.46 0 .834.56.834 1.25zM7.499 10c.46 0 .834-.56.834-1.25S7.96 7.5 7.499 7.5c-.46 0-.833.56-.833 1.25S7.039 10 7.499 10z" clip-rule="evenodd"/></svg>