<svg xmlns="http://www.w3.org/2000/svg" width="100" height="40" fill="none"><path fill="#999" d="M11.184 29.965c1.874 0 3.275-1.384 3.275-1.384.123-.102.263-.202.263-.202 1.122-.739 2.94-.206 2.94-.206.66.157.68-.344.68-.344l.05-.567c.05-.556.901-.55.901-.55 1.122-.044 1.595-.505 1.79-.83.208-.312-.186-.4-.186-.4-2.708-.759-4.022-3.337-4.022-3.337-.611-1.077.227-1.512.227-1.512.227-.16 1.337-.527 1.337-.527.916-.368.611-1.009.611-1.009-.34-.687-1.133-.229-1.133-.229-.374.2-.656.184-.656.184-.627.011-.702-.123-.702-.123l.021-2.983c0-2.728-2.399-4.94-5.357-4.94h-.052c-2.959 0-5.357 2.212-5.357 4.94l.02 2.983s-.074.134-.7.123c0 0-.283.016-.657-.183 0 0-.793-.46-1.133.229 0 0-.305.64.611 1.008 0 0 1.11.367 1.337.527 0 0 .838.436.227 1.512 0 0-1.314 2.578-4.022 3.337 0 0-.395.088-.186.4.195.325.668.786 1.79.83 0 0 .851-.006.9.55l.05.567s.02.501.68.344c0 0 1.819-.533 2.94.206 0 0 .14.099.264.202 0 0 1.402 1.384 3.275 1.384h-.025zm15.775-7.743c.733.369 2.387.93 3.55.93 1.253 0 1.915-.51 1.915-1.282 0-.773-.573-1.16-2.022-1.669-2.004-.684-3.31-1.774-3.31-3.494 0-2.02 1.718-3.565 4.563-3.565 1.359 0 2.361.28 3.077.597l.022 2.367c-.483-.228-1.972-.77-3.153-.77-1.18 0-1.753.528-1.753 1.142 0 .755.68 1.089 2.236 1.669 2.13.773 3.132 1.861 3.132 3.53 0 1.984-1.557 3.687-4.867 3.687-1.378 0-2.738-.369-3.417-.737l.027-2.405zM58.62 16.72v1.332c.505-.938 1.234-1.482 2.805-1.482 1.874 0 3.348 1.453 3.348 4.193 0 3.126-1.865 4.6-3.773 4.6-1.033 0-1.839-.42-2.224-.982l-.193-.252v4.84H56.08v-12.23l2.54-.019zm-.048 4.825c0 .22.019.42.055.583.182.748.818 1.313 1.618 1.313 1.2 0 1.91-1.003 1.91-2.516 0-1.422-.636-2.498-1.873-2.498-.782 0-1.473.584-1.654 1.404a2.131 2.131 0 0 0-.055.493v1.221zm14.332 3.429c-.473.21-1.366.404-2.381.404-2.766 0-4.535-1.639-4.535-4.343 0-2.511 1.716-4.46 4.903-4.46.7 0 1.47.122 2.03.333l-.013 2.045c-.505-.3-1.194-.43-1.895-.43-1.583 0-2.443 1.002-2.425 2.407 0 1.58.879 2.406 2.478 2.406.63 0 1.421-.305 1.823-.481l.015 2.119zm6.725-8.403c2.121 0 3.017.99 2.994 3.578v5.022h-2.602v-4.724c0-1.124-.444-1.897-1.443-1.897-.7 0-1.203.457-1.395.93-.07.176-.088.405-.088.598v5.093H74.6V12.703h2.518v5.28c.811-1.498 2.51-1.412 2.51-1.412h.001zm17.212-2.323v2.51h1.908v1.934H96.84v3.155c0 1.122.187 1.51 1.05 1.51.368 0 .526-.017.788-.07l.018 1.832c-.35.14-.98.245-1.734.245-.857 0-1.496-.316-1.916-.754-.49-.51-.735-1.335-.735-2.547v-3.37h-1.295v-1.934h1.295v-1.79l2.53-.721zm-54.919 2.143c-1.252 0-2.09.616-2.526 1.135v-.975H36.76v2.194c-.004.188-.006.38-.006.579v5.848h.006v.008l.004-.008h2.71V20.22c0-.246.036-.492.107-.668.179-.491.626-1 1.378-1 .984 0 1.377.754 1.377 1.86v4.76h2.72v-5.093c0-2.529-1.068-3.688-3.132-3.688zm12.043 8.79v-5.085c0-2.02-.897-3.705-3.75-3.705-1.4 0-2.486.34-3.124.65v2.044c.58-.347 1.796-.777 2.65-.777 1.313 0 1.594.898 1.594 1.354v.123c-3.03-.018-5.06.715-5.06 2.945 0 1.37 1.032 2.634 2.766 2.634 1.015 0 1.89-.369 2.45-1.053h.053l-.019.86h1.982l.457.01zm-2.661-3.036c0 .157-.018.314-.054.453-.18.54-.739.976-1.423.976-.612 0-1.08-.33-1.08-1.01 0-1.029 1.116-1.36 2.557-1.342v.923zm40.42 3.035v-5.084c0-2.02-.897-3.705-3.75-3.705-1.4 0-2.486.34-3.124.65v2.044c.58-.347 1.796-.777 2.65-.777 1.313 0 1.594.898 1.594 1.354v.123c-3.03-.018-5.06.715-5.06 2.945 0 1.37 1.033 2.634 2.766 2.634 1.015 0 1.89-.369 2.45-1.053h.053l-.019.86h1.982l.457.01zm-2.661-3.035c0 .157-.018.314-.054.453-.18.54-.739.976-1.423.976-.612 0-1.08-.33-1.08-1.01 0-1.029 1.116-1.36 2.557-1.342v.923z"/></svg>