<svg xmlns="http://www.w3.org/2000/svg" width="20" height="20" fill="none"><path fill="#A291FD" d="M11.848 2.916a4.308 4.308 0 0 0-3.695 0L2.577 5.53c-.897.42-1.13 1.606-.702 2.426v4.127a.625.625 0 1 0 1.25 0v-3.19l5.028 2.357a4.308 4.308 0 0 0 3.695 0l5.576-2.614c1.213-.568 1.213-2.537 0-3.105l-5.576-2.615z"/><path fill="#A291FD" d="M4.167 10.762v3.092c0 .84.42 1.627 1.154 2.034 1.224.678 3.183 1.612 4.68 1.612 1.496 0 3.455-.934 4.678-1.612.735-.407 1.155-1.194 1.155-2.034v-3.092l-3.455 1.62a5.558 5.558 0 0 1-4.757 0l-3.455-1.62z"/></svg>