<svg xmlns="http://www.w3.org/2000/svg" width="20" height="20" fill="none"><path fill="#CCC" fill-rule="evenodd" d="M9.583 1.667c-3.452 0-6.25 2.863-6.25 6.395 0 1.894.805 3.596 2.082 4.766.426.39.741.679.965.889a12.291 12.291 0 0 1 .333.324l.02.023.008.008c.197.249.24.313.265.371.025.059.044.134.093.45.02.125.022.339.022.921v.025c0 .34 0 .635.021.876.023.255.073.508.207.746.15.265.365.486.624.639.233.137.48.188.73.211.235.022.522.022.856.022h.048c.334 0 .621 0 .857-.021a1.7 1.7 0 0 0 .729-.212c.259-.153.474-.374.624-.639.134-.238.184-.49.207-.746.021-.241.021-.535.021-.876v-.025c0-.582.002-.796.022-.92.05-.317.068-.393.093-.45.026-.059.068-.123.265-.372l.007-.008a1.579 1.579 0 0 1 .094-.098c.063-.063.149-.145.26-.25.224-.21.54-.498.965-.888a6.446 6.446 0 0 0 2.082-4.766c0-3.532-2.798-6.395-6.25-6.395zm1.32 14.728h-2.64c.002.081.005.152.011.215.015.175.042.238.06.27a.58.58 0 0 0 .207.213c.031.018.093.045.264.06.178.017.414.018.778.018.364 0 .6-.001.778-.017.17-.016.233-.043.264-.061a.575.575 0 0 0 .208-.213c.018-.032.044-.095.06-.27.005-.063.008-.134.01-.215zm-.395-9.581a.59.59 0 0 1 .133.81l-.982 1.407h1.168a.57.57 0 0 1 .506.315.593.593 0 0 1-.043.604l-1.624 2.326a.56.56 0 0 1-.792.135.59.59 0 0 1-.132-.81l.981-1.407H8.555a.567.567 0 0 1-.505-.316.593.593 0 0 1 .042-.604L9.716 6.95a.56.56 0 0 1 .792-.135z" clip-rule="evenodd"/></svg>