<svg xmlns="http://www.w3.org/2000/svg" width="20" height="20" fill="none"><path fill="#CCC" fill-rule="evenodd" d="M4.729 5.648c-.562.84-.562 2.011-.562 4.352 0 2.34 0 3.511.562 4.352.243.364.555.676.92.92.84.561 2.01.561 4.351.561 2.34 0 3.511 0 4.352-.561.364-.244.676-.556.92-.92.561-.84.561-2.011.561-4.352 0-2.34 0-3.511-.561-4.352a3.333 3.333 0 0 0-.92-.92c-.84-.561-2.011-.561-4.352-.561-2.34 0-3.511 0-4.352.561a3.333 3.333 0 0 0-.92.92zM10 6.875c.345 0 .625.28.625.625v2.298l1.475 1.418a.625.625 0 1 1-.866.901l-1.667-1.602a.625.625 0 0 1-.192-.45V7.5c0-.345.28-.625.625-.625zM5.208 1.667c0-.346.28-.625.625-.625h8.334a.625.625 0 1 1 0 1.25H5.833a.625.625 0 0 1-.625-.625zm0 16.666c0-.345.28-.625.625-.625h8.334a.625.625 0 1 1 0 1.25H5.833a.625.625 0 0 1-.625-.625z" clip-rule="evenodd"/></svg>