<svg xmlns="http://www.w3.org/2000/svg" width="100" height="40" fill="none"><path fill="#999" d="M18.14 5C10.194 5 3.75 11.443 3.75 19.39c0 7.948 6.443 14.392 14.39 14.392 7.948 0 14.392-6.443 14.392-14.391C32.532 11.442 26.089 5 18.14 5zm6.6 20.755a.897.897 0 0 1-1.233.299c-3.38-2.066-7.633-2.532-12.642-1.388a.897.897 0 1 1-.4-1.748c5.482-1.253 10.185-.714 13.978 1.604.422.26.556.811.297 1.234zm1.762-3.918a1.123 1.123 0 0 1-1.544.37c-3.867-2.377-9.764-3.066-14.34-1.677a1.123 1.123 0 0 1-1.4-.748 1.123 1.123 0 0 1 .748-1.399c5.227-1.586 11.724-.817 16.166 1.912.528.325.694 1.016.37 1.543zm.15-4.08c-4.638-2.755-12.29-3.008-16.718-1.664a1.346 1.346 0 1 1-.781-2.576c5.083-1.543 13.534-1.245 18.873 1.925a1.346 1.346 0 0 1-1.373 2.315zm16.25.528c-2.484-.592-2.927-1.008-2.927-1.882 0-.826.778-1.381 1.934-1.381 1.155 0 2.231.422 3.396 1.29.035.026.08.037.123.03a.16.16 0 0 0 .107-.066l1.213-1.71a.163.163 0 0 0-.03-.222c-1.387-1.112-2.948-1.653-4.773-1.653-2.683 0-4.556 1.61-4.556 3.914 0 2.47 1.616 3.345 4.41 4.02 2.377.547 2.778 1.006 2.778 1.826 0 .91-.811 1.474-2.117 1.474-1.45 0-2.633-.488-3.957-1.634a.162.162 0 0 0-.231.019l-1.36 1.618a.161.161 0 0 0 .016.226c1.54 1.375 3.434 2.1 5.477 2.1 2.891 0 4.76-1.58 4.76-4.024.004-2.064-1.231-3.207-4.258-3.943l-.005-.002zm10.803-2.45c-1.253 0-2.281.493-3.129 1.505V16.2a.163.163 0 0 0-.162-.163h-2.225a.163.163 0 0 0-.163.163v12.65c0 .09.073.163.163.163h2.225c.09 0 .162-.073.162-.163v-3.992c.848.951 1.876 1.416 3.129 1.416 2.328 0 4.685-1.792 4.685-5.219.004-3.427-2.354-5.22-4.683-5.22h-.002zm2.098 5.22c0 1.744-1.075 2.962-2.614 2.962s-2.669-1.273-2.669-2.963c0-1.69 1.148-2.962 2.67-2.962 1.513 0 2.613 1.245 2.613 2.962zm8.628-5.22c-2.998 0-5.347 2.309-5.347 5.257 0 2.948 2.332 5.2 5.31 5.2 2.978 0 5.366-2.3 5.366-5.238 0-2.936-2.34-5.219-5.329-5.219zm0 8.199c-1.595 0-2.797-1.281-2.797-2.98 0-1.7 1.16-2.945 2.76-2.945 1.6 0 2.816 1.282 2.816 2.982 0 1.7-1.169 2.943-2.779 2.943zm11.732-7.996h-2.448v-2.503a.163.163 0 0 0-.163-.163h-2.224a.163.163 0 0 0-.163.163v2.503h-1.07a.163.163 0 0 0-.162.163v1.912c0 .09.072.163.162.163h1.07v4.948c0 2 .995 3.013 2.957 3.013.798 0 1.46-.165 2.085-.518a.162.162 0 0 0 .082-.142v-1.82a.163.163 0 0 0-.236-.147 2.804 2.804 0 0 1-1.306.316c-.714 0-1.032-.324-1.032-1.05v-4.599h2.448c.09 0 .162-.073.162-.163v-1.912a.158.158 0 0 0-.16-.163l-.002-.001zm8.53.01v-.307c0-.905.347-1.308 1.125-1.308.464 0 .836.092 1.253.231a.163.163 0 0 0 .214-.155v-1.875a.163.163 0 0 0-.115-.156 6.108 6.108 0 0 0-1.85-.266c-2.054 0-3.14 1.157-3.14 3.345v.471h-1.07a.164.164 0 0 0-.162.163v1.922c0 .09.073.163.163.163h1.069v7.632c0 .09.072.163.162.163h2.225c.09 0 .163-.073.163-.163v-7.631h2.077l3.182 7.63c-.36.801-.716.96-1.201.96-.392 0-.805-.117-1.227-.347a.167.167 0 0 0-.13-.013.164.164 0 0 0-.096.088l-.754 1.655a.162.162 0 0 0 .07.21c.788.426 1.498.608 2.377.608 1.642 0 2.55-.765 3.35-2.824l3.86-9.973a.163.163 0 0 0-.15-.223h-2.316a.164.164 0 0 0-.155.11l-2.372 6.777-2.599-6.782a.163.163 0 0 0-.152-.105h-3.801zm-4.945-.01h-2.225a.163.163 0 0 0-.163.163v9.707c0 .09.073.163.163.163h2.225c.09 0 .163-.073.163-.163v-9.706a.163.163 0 0 0-.163-.163zm-1.1-4.42a1.596 1.596 0 1 0-.004 3.192 1.596 1.596 0 0 0 .005-3.192h-.001z"/></svg>