<svg xmlns="http://www.w3.org/2000/svg" width="21" height="20" fill="none"><path fill="#A291FD" d="m11.362 3.043-.477.283c-.525.31-.787.466-1.076.502-.289.036-.572-.05-1.137-.225l-.515-.158c-1.991-.613-2.987-.92-3.585-.372-.598.548-.403 1.587-.013 3.665l.1.537c.111.59.167.886.101 1.174-.066.289-.245.538-.604 1.035l-.327.454c-1.262 1.752-1.894 2.628-1.586 3.354.308.726 1.352.822 3.439 1.013l.54.05c.592.054.889.08 1.137.223.249.142.42.383.764.865l.314.438c1.21 1.696 1.815 2.543 2.604 2.445.789-.1 1.239-1.08 2.138-3.039l.233-.507c.13-.284.228-.496.321-.662l3.824 3.824a.625.625 0 0 0 .884-.884l-3.693-3.693.343-.122.52-.182c2.011-.704 3.017-1.056 3.196-1.843.18-.788-.586-1.489-2.117-2.891l-.396-.363c-.435-.398-.652-.598-.765-.864-.113-.266-.108-.568-.1-1.174l.01-.551c.032-2.13.048-3.196-.63-3.584-.678-.388-1.6.159-3.447 1.252z"/></svg>