<svg xmlns="http://www.w3.org/2000/svg" width="25" height="24" fill="none"><path fill="#A291FD" d="M10.58 7.897C11.657 5.966 12.195 5 13 5c.805 0 1.343.966 2.42 2.897l.278.5c.306.549.46.823.698 1.004.238.181.535.248 1.13.383l.54.122c2.091.473 3.137.71 3.385 1.51.249.8-.464 1.633-1.89 3.3l-.368.43c-.405.474-.607.711-.699 1.004-.09.293-.06.609.001 1.24l.056.576c.216 2.224.323 3.336-.328 3.83-.651.495-1.63.044-3.587-.857l-.507-.234c-.556-.256-.834-.384-1.129-.384-.295 0-.573.128-1.13.384l-.506.234c-1.957.9-2.936 1.352-3.587.857-.651-.494-.543-1.606-.328-3.83l.056-.575c.061-.632.092-.948 0-1.24-.09-.294-.293-.53-.698-1.004l-.369-.432c-1.425-1.666-2.138-2.5-1.89-3.3.25-.8 1.295-1.036 3.386-1.509l.54-.122c.595-.135.892-.202 1.13-.383.239-.18.392-.455.698-1.004l.278-.5zM5.368 2.5c.03-.105.217-.106.248 0 .14.482.4 1.194.793 1.585.393.39 1.108.645 1.59.782.107.03.107.218.002.249-.482.14-1.195.4-1.586.793-.39.393-.645 1.108-.782 1.59-.03.106-.218.107-.249.001-.14-.482-.4-1.194-.793-1.585-.393-.39-1.107-.645-1.59-.782-.106-.03-.107-.218-.001-.249.482-.14 1.194-.4 1.585-.793.39-.393.646-1.108.783-1.59z"/><path fill="#A291FD" fill-rule="evenodd" d="M19.5 3.25a.75.75 0 0 1 .75.75v.25h.25a.75.75 0 0 1 0 1.5h-.25V6a.75.75 0 0 1-1.5 0v-.25h-.25a.75.75 0 0 1 0-1.5h.25V4a.75.75 0 0 1 .75-.75z" clip-rule="evenodd"/></svg>