<svg xmlns="http://www.w3.org/2000/svg" width="20" height="20" fill="none"><path fill="#CCC" d="M16.667 11.458a.625.625 0 0 0-.625-.625h-2.5a.625.625 0 0 0-.625.625v5.625h-1.25V3.542c0-.607-.002-1-.04-1.289-.037-.27-.096-.356-.144-.403-.047-.048-.132-.107-.403-.143-.29-.039-.681-.04-1.288-.04s-1 .001-1.289.04c-.27.036-.356.095-.403.143-.048.047-.107.132-.143.403-.04.29-.04.682-.04 1.289v13.541h-1.25V7.292a.625.625 0 0 0-.625-.625h-2.5a.625.625 0 0 0-.625.625v9.791H1.458a.625.625 0 1 0 0 1.25h16.667a.625.625 0 0 0 0-1.25h-1.458v-5.625z"/></svg>