<svg xmlns="http://www.w3.org/2000/svg" width="20" height="20" fill="none"><path fill="#A291FD" d="M1.667 5.417c0-1.768 0-2.652.549-3.201.549-.55 1.433-.55 3.2-.55 1.768 0 2.652 0 3.201.55.55.549.55 1.433.55 3.2 0 1.768 0 2.652-.55 3.201-.549.55-1.433.55-3.2.55-1.768 0-2.652 0-3.201-.55-.55-.549-.55-1.433-.55-3.2zm9.166 9.166c0-1.767 0-2.651.55-3.2.549-.55 1.433-.55 3.2-.55 1.768 0 2.652 0 3.201.55.55.549.55 1.433.55 3.2 0 1.768 0 2.652-.55 3.201-.549.55-1.433.55-3.2.55-1.768 0-2.652 0-3.201-.55-.55-.549-.55-1.433-.55-3.2zm-9.166 0c0-1.767 0-2.651.549-3.2.549-.55 1.433-.55 3.2-.55 1.768 0 2.652 0 3.201.55.55.549.55 1.433.55 3.2 0 1.768 0 2.652-.55 3.201-.549.55-1.433.55-3.2.55-1.768 0-2.652 0-3.201-.55-.55-.549-.55-1.433-.55-3.2zm9.166-9.166c0-1.768 0-2.652.55-3.201.549-.55 1.433-.55 3.2-.55 1.768 0 2.652 0 3.201.55.55.549.55 1.433.55 3.2 0 1.768 0 2.652-.55 3.201-.549.55-1.433.55-3.2.55-1.768 0-2.652 0-3.201-.55-.55-.549-.55-1.433-.55-3.2z"/></svg>