<svg xmlns="http://www.w3.org/2000/svg" width="20" height="20" fill="none"><path fill="#E6E6E6" fill-rule="evenodd" d="M9.374 1.667a8.358 8.358 0 0 0-7.707 7.706h2.484a.627.627 0 1 1 0 1.254H1.667a8.358 8.358 0 0 0 7.707 7.706V15.85a.627.627 0 1 1 1.253 0v2.483a8.358 8.358 0 0 0 7.707-7.706H15.85a.627.627 0 1 1 0-1.254h2.484a8.358 8.358 0 0 0-7.707-7.706V4.15a.627.627 0 0 1-1.253 0V1.667zM7.702 10c0-.346.28-.627.627-.627h1.045V8.33a.627.627 0 0 1 1.253 0v1.044h1.045a.627.627 0 1 1 0 1.254h-1.045v1.044a.627.627 0 1 1-1.253 0v-1.044H8.329A.627.627 0 0 1 7.702 10z" clip-rule="evenodd"/></svg>