<svg xmlns="http://www.w3.org/2000/svg" width="20" height="20" fill="none"><path fill="#CCC" d="M10 1.042c.345 0 .625.28.625.625v.863l4.173 2.087.045.022c.612.306 1.134.567 1.497.82.368.258.755.63.755 1.208 0 .577-.387.95-.755 1.207-.363.253-.885.514-1.497.82l-4.218 2.109V15a.625.625 0 1 1-1.25 0V1.667c0-.345.28-.625.625-.625z"/><path fill="#CCC" d="M10 18.333c4.603 0 8.334-1.305 8.334-2.916 0-1.386-2.76-2.545-6.458-2.843V15a1.875 1.875 0 1 1-3.75 0v-2.426c-3.7.298-6.459 1.457-6.459 2.843 0 1.61 3.731 2.916 8.333 2.916z"/><path fill="#CCC" d="M10 1.042a.625.625 0 0 0-.625.625v8.737a.63.63 0 0 0 0 .026V15a.625.625 0 1 0 1.25 0v-4.197l4.219-2.11c.612-.305 1.133-.566 1.496-.82.369-.256.756-.63.756-1.206 0-.577-.387-.95-.756-1.207-.363-.254-.884-.515-1.496-.82l-4.218-2.11v-.863A.625.625 0 0 0 10 1.042z"/></svg>