<svg xmlns="http://www.w3.org/2000/svg" width="20" height="20" fill="none"><path fill="#A291FD" d="M6.353 3.707c1.564-.625 2.497-.999 3.646-.999 1.15 0 2.083.374 3.647 1l2.474.99c.796.317 1.44.575 1.882.807.224.117.441.25.608.41.172.166.348.415.348.752 0 .336-.176.586-.348.75a2.637 2.637 0 0 1-.608.411c-.442.232-1.086.49-1.882.808l-2.474.99c-1.564.626-2.497.999-3.647.999-1.149 0-2.082-.373-3.646-1l-2.475-.989c-.795-.318-1.44-.576-1.882-.808a2.674 2.674 0 0 1-.607-.41c-.172-.165-.348-.415-.348-.751 0-.337.176-.586.348-.751.167-.16.384-.294.607-.411.443-.232 1.087-.49 1.882-.808l2.475-.99z"/><path fill="#A291FD" fill-rule="evenodd" d="m2.083 9.535-.001-.001.003.002c.004.003.01.01.02.017l.098.079c.091.07.232.173.424.298.383.248.968.58 1.753.894l2.34.936c1.688.675 2.396.948 3.28.948.883 0 1.59-.273 3.278-.948l2.34-.936c.786-.314 1.37-.646 1.754-.894a6.352 6.352 0 0 0 .542-.394l.002-.001v-.002a.625.625 0 0 1 .834.932L18.333 10l.417.465-.001.001-.002.002-.003.003-.012.01a3.31 3.31 0 0 1-.172.14c-.116.09-.286.213-.508.357-.444.288-1.1.659-1.97 1.007l-2.34.936-.096.038c-1.564.626-2.497 1-3.647 1-1.149 0-2.082-.374-3.646-1l-.096-.038-2.34-.936a11.432 11.432 0 0 1-1.97-1.007 7.595 7.595 0 0 1-.643-.465 3.445 3.445 0 0 1-.037-.032l-.012-.01-.004-.003-.001-.002h-.001L1.666 10l-.417.466a.625.625 0 0 1 .833-.932m.001 0zm-.001 3.333a.625.625 0 0 0-.881.049l.88-.05zm0 0 .003.002a1.761 1.761 0 0 0 .118.096c.091.07.232.174.424.298.383.248.968.58 1.753.894l2.34.936c1.688.675 2.396.949 3.28.949.883 0 1.59-.274 3.278-.949l2.34-.936c.786-.314 1.37-.646 1.754-.894a6.307 6.307 0 0 0 .542-.394l.002-.001v-.001a.625.625 0 0 1 .834.932l-.404-.45.404.45h-.001l-.002.002-.003.003-.012.01a2.517 2.517 0 0 1-.172.14c-.116.09-.286.213-.508.358-.444.288-1.1.658-1.97 1.006l-2.34.936-.096.039c-1.564.625-2.497.999-3.647.999-1.149 0-2.082-.374-3.646-1l-.096-.038-2.34-.936a11.438 11.438 0 0 1-1.97-1.006 7.595 7.595 0 0 1-.643-.466 2.595 2.595 0 0 1-.037-.032l-.012-.01-.004-.003-.001-.001-.001-.001.417-.466-.417.466a.625.625 0 0 1-.048-.883" clip-rule="evenodd"/></svg>