<svg xmlns="http://www.w3.org/2000/svg" width="20" height="20" fill="none"><path fill="#CCC" d="M14.167 10a4.167 4.167 0 1 1-8.333 0 4.167 4.167 0 0 1 8.333 0z"/><path fill="#CCC" fill-rule="evenodd" d="M10 1.042c.345 0 .625.28.625.625v1.666a.625.625 0 1 1-1.25 0V1.667c0-.345.28-.625.625-.625zM3.058 3.097a.625.625 0 0 1 .883-.04L5.792 4.75a.625.625 0 1 1-.843.923L3.097 3.98a.625.625 0 0 1-.04-.883zm13.885 0a.625.625 0 0 1-.04.883l-1.851 1.693a.625.625 0 0 1-.844-.923l1.852-1.693a.625.625 0 0 1 .883.04zM1.042 10c0-.345.28-.625.625-.625h1.667a.625.625 0 1 1 0 1.25H1.667A.625.625 0 0 1 1.042 10zm15 0c0-.345.28-.625.625-.625h1.667a.625.625 0 0 1 0 1.25h-1.667a.625.625 0 0 1-.625-.625zm-1.854 4.188a.625.625 0 0 1 .884 0l1.852 1.852a.625.625 0 1 1-.884.884l-1.852-1.852a.625.625 0 0 1 0-.884zm-8.375 0a.625.625 0 0 1 0 .884L3.96 16.924a.625.625 0 1 1-.884-.884l1.852-1.852a.625.625 0 0 1 .884 0zM10 16.042c.345 0 .625.28.625.625v1.666a.625.625 0 0 1-1.25 0v-1.666c0-.346.28-.625.625-.625z" clip-rule="evenodd"/></svg>