<svg xmlns="http://www.w3.org/2000/svg" width="100" height="40" fill="none"><path fill="#999" d="M23.148 16.529a9.752 9.752 0 0 0 5.699 1.83v-4.103c-.402 0-.803-.043-1.198-.126v3.229a9.748 9.748 0 0 1-5.699-1.83v8.372c0 4.188-3.384 7.583-7.558 7.583a7.51 7.51 0 0 1-4.208-1.282 7.524 7.524 0 0 0 5.405 2.282c4.176 0 7.56-3.395 7.56-7.583v-8.372zm1.477-4.138a5.724 5.724 0 0 1-1.477-3.348v-.527h-1.135a5.742 5.742 0 0 0 2.61 3.875h.002zM12.823 26.989a3.455 3.455 0 0 1-.705-2.1 3.463 3.463 0 0 1 4.506-3.305v-4.195a7.606 7.606 0 0 0-1.196-.07v3.265a3.463 3.463 0 0 0-4.508 3.305c0 1.355.775 2.527 1.903 3.1z"/><path fill="#999" d="M21.949 15.531a9.752 9.752 0 0 0 5.699 1.83v-3.23a5.714 5.714 0 0 1-3.026-1.74 5.744 5.744 0 0 1-2.61-3.875h-2.98v16.387a3.463 3.463 0 0 1-3.458 3.456 3.45 3.45 0 0 1-2.752-1.369 3.47 3.47 0 0 1-1.903-3.097 3.463 3.463 0 0 1 4.508-3.306v-3.264c-4.101.085-7.4 3.446-7.4 7.581a7.57 7.57 0 0 0 2.155 5.302 7.514 7.514 0 0 0 4.208 1.282c4.176 0 7.559-3.396 7.559-7.583V15.53z"/><path fill="#999" d="M27.648 14.13v-.874a5.7 5.7 0 0 1-3.025-.867 5.715 5.715 0 0 0 3.025 1.74zm-5.636-5.616a6.314 6.314 0 0 1-.063-.47v-.528h-4.113v16.387a3.464 3.464 0 0 1-3.457 3.456 3.418 3.418 0 0 1-1.555-.37 3.45 3.45 0 0 0 2.752 1.369 3.464 3.464 0 0 0 3.458-3.457V8.514h2.98-.002zm-6.585 8.806v-.93a7.553 7.553 0 0 0-1.036-.072c-4.176 0-7.56 3.395-7.56 7.583a7.583 7.583 0 0 0 3.35 6.301 7.57 7.57 0 0 1-2.155-5.301c0-4.135 3.298-7.496 7.4-7.581h.001zm59.888 10.733c2.986 0 5.409-2.41 5.409-5.384s-2.423-5.385-5.41-5.385H74.5c2.987 0 5.41 2.41 5.41 5.385 0 2.973-2.423 5.384-5.41 5.384h.815zm-.89-10.771h-.815c-2.986 0-5.409 2.411-5.409 5.385 0 2.974 2.423 5.384 5.41 5.384h.814c-2.988 0-5.409-2.41-5.409-5.384s2.422-5.385 5.41-5.385zM33.303 14.85v2.728h3.184v10.4h3.187V17.651h2.594l.889-2.803h-9.854v.001zm26.081 0v2.728h3.185v10.4h3.186V17.651h2.594l.89-2.803h-9.855v.001zM43.75 16.397c0-.855.696-1.549 1.555-1.549s1.557.694 1.557 1.55c0 .854-.696 1.548-1.557 1.548a1.552 1.552 0 0 1-1.555-1.549zm0 2.656h3.11v8.926h-3.11v-8.926zm4.445-4.205V27.98h3.112v-3.393l.964-.886 3.037 4.352h3.334L54.27 21.71l3.927-3.836h-3.78l-3.112 3.098v-6.123h-3.112.002zm33.566 0V27.98h3.112v-3.393l.962-.886 3.04 4.352h3.333l-4.372-6.343 3.927-3.836h-3.78l-3.112 3.098v-6.123H81.76h.002z"/><path fill="#999" d="M74.501 28.053c2.987 0 5.41-2.41 5.41-5.384s-2.423-5.385-5.41-5.385h-.074c-2.987 0-5.41 2.41-5.41 5.385 0 2.973 2.423 5.384 5.41 5.384h.074zm-2.668-5.384a2.625 2.625 0 0 1 2.63-2.619 2.625 2.625 0 0 1 2.632 2.619 2.624 2.624 0 0 1-2.631 2.618 2.625 2.625 0 0 1-2.63-2.618z"/></svg>