<svg xmlns="http://www.w3.org/2000/svg" width="20" height="20" fill="none"><path fill="#A291FD" fill-rule="evenodd" d="M10.044 1.042h-.087c-.749 0-1.373 0-1.869.066-.523.07-.995.225-1.375.605s-.534.852-.604 1.375c-.067.496-.067 1.12-.067 1.869v.064c-.144.005-.283.01-.417.018v6.836h2.737c.171 0 .356 0 .512.02.183.025.416.089.613.285.196.197.26.43.284.613.021.156.021.34.021.512v.89c0 .171 0 .356-.02.512a1.032 1.032 0 0 1-.285.613c-.197.196-.43.26-.613.284-.156.021-.34.021-.512.021H5.625v2.67c.746.038 1.636.038 2.709.038h3.333c1.073 0 1.963 0 2.708-.038V5.038a21.544 21.544 0 0 0-.416-.018v-.064c0-.75 0-1.373-.067-1.87-.07-.522-.225-.995-.605-1.374-.38-.38-.851-.534-1.375-.605-.495-.066-1.12-.066-1.868-.066zm2.665 3.96V5c0-.803-.002-1.343-.056-1.746-.052-.384-.14-.549-.25-.657-.108-.109-.273-.198-.657-.25-.403-.054-.942-.055-1.746-.055-.803 0-1.343.001-1.745.055-.385.052-.55.141-.658.25-.109.108-.198.273-.25.657-.054.403-.055.943-.055 1.746v.002C7.619 5 7.965 5 8.334 5h3.333c.368 0 .715 0 1.042.002z" clip-rule="evenodd"/><path fill="#A291FD" d="M17.357 17.357c-.432.432-.981.673-1.732.808V5.168c.75.134 1.3.375 1.732.807.977.977.977 2.548.977 5.69 0 3.143 0 4.715-.977 5.691zM2.643 5.976c.433-.432.982-.673 1.732-.807v6.74a.996.996 0 0 0-.528.271c-.196.197-.26.43-.284.613-.021.156-.021.34-.021.512v.89c0 .171 0 .356.02.512.025.183.089.416.285.613a.997.997 0 0 0 .528.27v2.575c-.75-.135-1.3-.376-1.732-.808-.976-.976-.976-2.548-.976-5.69 0-3.143 0-4.714.976-5.69zm2.15 7.15-.001.207v.834l.001.207.207.001h3.334l.207-.001.001-.207v-.834l-.001-.207-.207-.001H5l-.207.001z"/></svg>