<svg xmlns="http://www.w3.org/2000/svg" width="24" height="24" fill="none"><path fill="#E6E6E6" d="m23.03 7.28-2.803 2.804C19.66 16.648 14.124 21.75 7.499 21.75c-1.361 0-2.483-.216-3.335-.641-.688-.344-.969-.713-1.04-.818a.75.75 0 0 1 .362-1.118c.024-.01 2.272-.873 3.7-2.516a10.397 10.397 0 0 1-2.051-2.27C3.972 12.663 2.67 9.665 3.072 5.184a.75.75 0 0 1 1.28-.46c.033.032 3.12 3.102 6.894 4.098V8.25a4.487 4.487 0 0 1 1.347-3.216 4.394 4.394 0 0 1 3.166-1.284A4.562 4.562 0 0 1 19.646 6H22.5a.75.75 0 0 1 .53 1.28z"/></svg>