<svg xmlns="http://www.w3.org/2000/svg" width="20" height="20" fill="none"><path fill="#CCC" d="m3.371 4.576 1.205-1.205c1.137-1.136 1.705-1.704 2.411-1.704s1.274.568 2.41 1.704L7.39 5.38 3.37 9.397c-1.136-1.136-1.704-1.704-1.704-2.41 0-.706.568-1.274 1.704-2.41zm13.258 10.848-1.205 1.205c-1.137 1.136-1.705 1.704-2.41 1.704-.707 0-1.275-.568-2.411-1.704l4.017-4.018 2.009-2.008c1.136 1.136 1.704 1.704 1.704 2.41 0 .706-.568 1.274-1.704 2.41zm-7.129-.29 6.163-6.163a8.575 8.575 0 0 1-2.771-1.862 8.574 8.574 0 0 1-1.863-2.772L4.866 10.5c-.481.48-.722.721-.928.986a5.462 5.462 0 0 0-.624 1.01c-.145.303-.253.626-.468 1.271L1.712 17.17a.884.884 0 0 0 1.118 1.118l3.403-1.134c.645-.215.968-.323 1.271-.468a5.49 5.49 0 0 0 1.01-.623c.265-.207.505-.448.986-.929zm7.874-7.874a3.277 3.277 0 1 0-4.635-4.633L12 3.365l.031.093a7.297 7.297 0 0 0 1.744 2.766A7.296 7.296 0 0 0 16.635 8l.739-.74z"/></svg>