<svg xmlns="http://www.w3.org/2000/svg" width="20" height="20" fill="none"><path fill="#999" fill-rule="evenodd" d="M18.333 10a8.333 8.333 0 1 1-16.667 0 8.333 8.333 0 0 1 16.667 0zm-7.094-4.628a.624.624 0 0 1 .442.765l-2.156 8.05a.625.625 0 0 1-1.208-.324l2.157-8.05a.625.625 0 0 1 .765-.441zm1.235 1.686a.625.625 0 0 1 .884 0l.174.174c.529.53.97.97 1.274 1.368.32.42.545.863.545 1.4 0 .537-.225.98-.545 1.4-.303.397-.745.839-1.274 1.368l-.174.174a.625.625 0 0 1-.884-.884l.143-.143c.568-.568.949-.95 1.195-1.273.236-.309.289-.488.289-.642 0-.154-.054-.333-.289-.642-.246-.322-.627-.705-1.195-1.273l-.143-.143a.625.625 0 0 1 0-.884zm-5.833 0a.625.625 0 1 1 .884.884l-.143.143c-.568.568-.949.95-1.195 1.273-.236.309-.289.488-.289.642 0 .154.053.333.289.642.246.322.627.705 1.195 1.273l.143.143a.625.625 0 0 1-.884.884l-.174-.174c-.53-.53-.97-.97-1.274-1.368-.32-.42-.545-.863-.545-1.4 0-.537.225-.98.545-1.4.303-.397.745-.839 1.274-1.368l.174-.174z" clip-rule="evenodd"/></svg>