<svg xmlns="http://www.w3.org/2000/svg" width="20" height="20" fill="none"><path fill="#CCC" d="M14.915 18.333a3.333 3.333 0 1 0 0-6.666h-.183l-4.834 4.831a1.02 1.02 0 0 0-.315.736c0 .594.48 1.1 1.075 1.1h4.258zM11.07 4.132l-.88.88a2.08 2.08 0 0 0-.607 1.466v6.865c0 .88 0 1.319.261 1.424.261.105.565-.213 1.174-.847l4.865-5.075a3.368 3.368 0 0 0-4.814-4.713z"/><path fill="#CCC" fill-rule="evenodd" d="M8.333 5v10a3.333 3.333 0 1 1-6.667 0V5a3.333 3.333 0 1 1 6.667 0zM4.999 15.833a.833.833 0 1 0 0-1.666.833.833 0 0 0 0 1.666z" clip-rule="evenodd"/></svg>