<svg xmlns="http://www.w3.org/2000/svg" width="25" height="25" fill="none"><path fill="#A291FD" d="M12.5 2.9c-5.301 0-9.6 4.298-9.6 9.6a9.54 9.54 0 0 0 1.37 4.92L2.985 22.1l4.78-1.255A9.548 9.548 0 0 0 12.5 22.1c5.302 0 9.6-4.299 9.6-9.6a9.6 9.6 0 0 0-9.6-9.6zM9.214 8.022c.156 0 .317-.001.455.006.171.004.358.017.536.411.212.469.674 1.645.733 1.764.06.12.101.26.019.416-.079.16-.12.257-.235.398-.119.138-.25.309-.357.413-.12.119-.243.25-.105.487.137.238.615 1.017 1.322 1.645.908.812 1.674 1.06 1.912 1.18.239.12.377.1.514-.06.142-.155.595-.69.755-.929.156-.238.315-.197.531-.119.22.079 1.388.655 1.627.774.238.119.394.178.454.275.062.1.062.576-.136 1.131-.197.554-1.168 1.09-1.603 1.128-.439.04-.849.198-2.854-.592-2.42-.953-3.945-3.43-4.064-3.59-.12-.157-.97-1.289-.97-2.457 0-1.172.615-1.746.83-1.984a.874.874 0 0 1 .636-.297z"/></svg>