<svg xmlns="http://www.w3.org/2000/svg" width="20" height="20" fill="none"><path fill="#E6E6E6" fill-rule="evenodd" d="M6.59 3.546A2.501 2.501 0 1 0 3.546 6.59a.632.632 0 0 0-.005.078v6.666a.63.63 0 0 0 .005.078 2.501 2.501 0 1 0 3.042 3.042.62.62 0 0 0 .078.005h6.667a.62.62 0 0 0 .077-.005 2.501 2.501 0 1 0 3.043-3.042.64.64 0 0 0 .005-.078V6.667a.64.64 0 0 0-.005-.078 2.501 2.501 0 1 0-3.043-3.043.632.632 0 0 0-.077-.004H6.667a.632.632 0 0 0-.078.004zM4.786 6.59a.632.632 0 0 1 .005.078v6.666a.632.632 0 0 1-.005.078c.883.225 1.577.92 1.802 1.802a.62.62 0 0 1 .078-.005h6.667a.62.62 0 0 1 .077.005 2.504 2.504 0 0 1 1.802-1.802.64.64 0 0 1-.004-.078V6.667a.64.64 0 0 1 .004-.078 2.504 2.504 0 0 1-1.802-1.802.632.632 0 0 1-.077.005H6.667a.63.63 0 0 1-.078-.005 2.504 2.504 0 0 1-1.802 1.802z" clip-rule="evenodd"/></svg>