<svg xmlns="http://www.w3.org/2000/svg" width="24" height="24" fill="none"><path fill="#999" d="M16.998 11.47c0-.842-.323-1.425-.6-1.88-.369-.56-.715-1.036-.715-1.597 0-.627.508-1.21 1.223-1.21.032 0 .063.004.094.006C15.705 5.679 13.979 5 12.084 5 9.54 5 7.302 6.221 6 8.071c.17.005.332.008.469.008.761 0 1.94-.086 1.94-.086a.282.282 0 0 1 .047.561s-.395.043-.833.065L10.273 16l1.594-4.472-1.134-2.908a14.777 14.777 0 0 1-.764-.065c-.392-.022-.346-.583.046-.562 0 0 1.203.087 1.918.087.761 0 1.94-.087 1.94-.087a.282.282 0 0 1 .047.562s-.396.043-.833.065l2.631 7.324.726-2.27c.315-.944.554-1.62.554-2.204zM5 11.802C5 14.528 6.633 16.884 9 18L5.614 9A6.687 6.687 0 0 0 5 11.802z"/><path fill="#999" d="M12.441 13 10 18.732c.729.173 1.5.268 2.299.268A9.88 9.88 0 0 0 15 18.627a.535.535 0 0 1-.058-.09L12.442 13zM15 18c2.392-1.16 4-3.318 4-5.787 0-1.165-.357-2.26-.985-3.213.034.213.054.442.054.688 0 .68-.152 1.444-.612 2.399L15 18z"/><path fill="#999" d="M12 1C5.925 1 1 5.925 1 12s4.925 11 11 11 11-4.925 11-11S18.075 1 12 1zm0 18.715c-4.254 0-7.715-3.46-7.715-7.715 0-4.254 3.46-7.715 7.715-7.715 4.254 0 7.715 3.46 7.715 7.715 0 4.254-3.46 7.715-7.715 7.715z"/></svg>