<svg xmlns="http://www.w3.org/2000/svg" width="20" height="20" fill="none"><path fill="#A291FD" fill-rule="evenodd" d="M8.23 3.542a1.876 1.876 0 0 1 3.538 0 .625.625 0 0 0 1.178-.417 3.126 3.126 0 0 0-5.894 0 .625.625 0 0 0 1.179.417zm-5.941 3.2a.626.626 0 0 0-.14-.067 2.52 2.52 0 0 1 .493-.699C3.62 5 5.19 5 8.332 5h3.334c3.143 0 4.714 0 5.69.976.204.204.366.434.493.699a.627.627 0 0 0-.139.067c-1.75 1.138-2.85 1.85-3.764 2.306a.625.625 0 0 0-1.238.119v.381a9.375 9.375 0 0 1-5.417 0v-.381a.625.625 0 0 0-1.239-.119C5.14 8.592 4.04 7.88 2.29 6.742zm-.623 4.925c0-1.626 0-2.83.135-3.75 1.897 1.233 3.113 2.02 4.24 2.504v.412a.625.625 0 0 0 1.25.014c1.775.468 3.642.468 5.417 0a.625.625 0 0 0 1.25-.014v-.412c1.126-.485 2.342-1.271 4.24-2.504.135.92.135 2.124.135 3.75 0 3.142 0 4.714-.977 5.69-.976.976-2.547.976-5.69.976H8.333c-3.143 0-4.714 0-5.69-.976-.977-.976-.977-2.548-.977-5.69z" clip-rule="evenodd"/></svg>